STARTFONT 2.1
FONT -Adobe-Times-Bold-I-Normal--20-140-100-100-P-98-ISO10646-1
SIZE 14 100 100
FONTBOUNDINGBOX 23 31 -3 -9
COMMENT $Xorg: $
COMMENT ISO10646-1 extension by Markus Kuhn <mkuhn@acm.org>, 2001-03-20
COMMENT 
COMMENT +
COMMENT  Copyright 1984-1989, 1994 Adobe Systems Incorporated.
COMMENT  Copyright 1988, 1994 Digital Equipment Corporation.
COMMENT
COMMENT  Adobe is a trademark of Adobe Systems Incorporated which may be
COMMENT  registered in certain jurisdictions.
COMMENT  Permission to use these trademarks is hereby granted only in
COMMENT  association with the images described in this file.
COMMENT
COMMENT  Permission to use, copy, modify, distribute and sell this software
COMMENT  and its documentation for any purpose and without fee is hereby
COMMENT  granted, provided that the above copyright notices appear in all
COMMENT  copies and that both those copyright notices and this permission
COMMENT  notice appear in supporting documentation, and that the names of
COMMENT  Adobe Systems and Digital Equipment Corporation not be used in
COMMENT  advertising or publicity pertaining to distribution of the software
COMMENT  without specific, written prior permission.  Adobe Systems and
COMMENT  Digital Equipment Corporation make no representations about the
COMMENT  suitability of this software for any purpose.  It is provided "as
COMMENT  is" without express or implied warranty.
COMMENT -
STARTPROPERTIES 26
FOUNDRY "Adobe"
FAMILY_NAME "Times"
WEIGHT_NAME "Bold"
SLANT "I"
SETWIDTH_NAME "Normal"
ADD_STYLE_NAME ""
PIXEL_SIZE 20
POINT_SIZE 140
RESOLUTION_X 100
RESOLUTION_Y 100
SPACING "P"
AVERAGE_WIDTH 98
CHARSET_REGISTRY "ISO10646"
CHARSET_ENCODING "1"
CAP_HEIGHT 13
X_HEIGHT 9
FONT_ASCENT 16
FONT_DESCENT 4
FACE_NAME "Times Bold Italic"
COPYRIGHT "Copyright (c) 1984, 1987 Adobe Systems Incorporated. All Rights Reserved. Copyright (c) 1988, 1991 Digital Equipment Corporation. All Rights Reserved."

STARTCHAR char0
ENCODING 0
SWIDTH 778 0
DWIDTH 15 0
BBX 15 13 0 0
BITMAP
AAAA
0000
8002
0000
8002
0000
8002
0000
8002
0000
8002
0000
AAAA
ENDCHAR
STARTCHAR space
ENCODING 32
SWIDTH 250 0
DWIDTH 4 0
BBX 1 1 0 0
BITMAP
00
ENDCHAR
STARTCHAR exclam
ENCODING 33
SWIDTH 389 0
DWIDTH 7 0
BBX 6 13 1 0
BITMAP
1C
1C
18
38
38
30
70
60
40
00
00
C0
C0
ENDCHAR
STARTCHAR quotedbl
ENCODING 34
SWIDTH 555 0
DWIDTH 9 0
BBX 7 5 1 8
BITMAP
66
66
CC
CC
88
ENDCHAR
STARTCHAR numbersign
ENCODING 35
SWIDTH 500 0
DWIDTH 9 0
BBX 9 13 0 0
BITMAP
1B00
1B00
1B00
7F80
7F80
3600
3600
3600
FF00
FF00
6C00
6C00
6C00
ENDCHAR
STARTCHAR dollar
ENCODING 36
SWIDTH 500 0
DWIDTH 9 0
BBX 10 16 0 -2
BITMAP
0100
0F40
12C0
3280
3400
3C00
1E00
0F00
0F80
0B80
0980
9180
D300
3E00
2000
2000
ENDCHAR
STARTCHAR percent
ENCODING 37
SWIDTH 833 0
DWIDTH 15 0
BBX 14 13 0 0
BITMAP
3C30
77E0
E460
C4C0
CC80
D980
7138
0374
02E4
04C4
0CCC
08D8
1870
ENDCHAR
STARTCHAR ampersand
ENCODING 38
SWIDTH 778 0
DWIDTH 15 0
BBX 13 13 1 0
BITMAP
0780
0EC0
0E40
0EC0
0780
0E00
3E78
7730
E760
E3C0
E380
F7D8
7CF0
ENDCHAR
STARTCHAR quotesingle
ENCODING 39
SWIDTH 278 0
DWIDTH 5 0
BBX 3 5 1 8
BITMAP
60
60
C0
C0
80
ENDCHAR
STARTCHAR parenleft
ENCODING 40
SWIDTH 333 0
DWIDTH 6 0
BBX 6 16 0 -3
BITMAP
0C
18
30
30
60
60
C0
C0
C0
C0
C0
C0
C0
60
60
30
ENDCHAR
STARTCHAR parenright
ENCODING 41
SWIDTH 333 0
DWIDTH 6 0
BBX 6 16 0 -3
BITMAP
30
18
18
0C
0C
0C
0C
0C
0C
0C
18
18
30
30
60
C0
ENDCHAR
STARTCHAR asterisk
ENCODING 42
SWIDTH 500 0
DWIDTH 10 0
BBX 8 8 1 5
BITMAP
18
18
DB
7E
18
7E
DB
18
ENDCHAR
STARTCHAR plus
ENCODING 43
SWIDTH 570 0
DWIDTH 10 0
BBX 10 10 0 0
BITMAP
0C00
0C00
0C00
0C00
FFC0
FFC0
0C00
0C00
0C00
0C00
ENDCHAR
STARTCHAR comma
ENCODING 44
SWIDTH 250 0
DWIDTH 5 0
BBX 3 4 0 -2
BITMAP
60
60
20
C0
ENDCHAR
STARTCHAR hyphen
ENCODING 45
SWIDTH 333 0
DWIDTH 6 0
BBX 5 2 0 4
BITMAP
F8
F8
ENDCHAR
STARTCHAR period
ENCODING 46
SWIDTH 250 0
DWIDTH 4 0
BBX 2 2 0 0
BITMAP
C0
C0
ENDCHAR
STARTCHAR slash
ENCODING 47
SWIDTH 278 0
DWIDTH 6 0
BBX 6 13 0 0
BITMAP
0C
0C
18
18
18
30
30
60
60
60
C0
C0
C0
ENDCHAR
STARTCHAR zero
ENCODING 48
SWIDTH 500 0
DWIDTH 9 0
BBX 8 13 0 0
BITMAP
1E
3B
73
73
E3
E3
E7
C7
C7
CE
CE
5C
78
ENDCHAR
STARTCHAR one
ENCODING 49
SWIDTH 500 0
DWIDTH 9 0
BBX 7 13 0 0
BITMAP
0E
3E
0E
0E
1C
1C
1C
1C
1C
38
38
38
FE
ENDCHAR
STARTCHAR two
ENCODING 50
SWIDTH 500 0
DWIDTH 9 0
BBX 9 13 -1 0
BITMAP
1F00
3F80
2780
0380
0380
0700
0600
0C00
1800
3100
7F00
FF00
FE00
ENDCHAR
STARTCHAR three
ENCODING 51
SWIDTH 500 0
DWIDTH 9 0
BBX 9 13 -1 0
BITMAP
1F00
3780
0380
0380
0700
1C00
1E00
0700
0700
0700
6700
EE00
7C00
ENDCHAR
STARTCHAR four
ENCODING 52
SWIDTH 500 0
DWIDTH 9 0
BBX 8 13 0 0
BITMAP
03
07
0F
1F
16
36
66
CE
FF
FF
0C
1C
1C
ENDCHAR
STARTCHAR five
ENCODING 53
SWIDTH 500 0
DWIDTH 9 0
BBX 8 13 0 0
BITMAP
1F
3F
3E
60
60
7C
0E
0F
07
07
CE
DC
78
ENDCHAR
STARTCHAR six
ENCODING 54
SWIDTH 500 0
DWIDTH 9 0
BBX 8 13 0 0
BITMAP
03
0E
1C
38
70
7C
FE
E3
E3
E7
C7
6E
3C
ENDCHAR
STARTCHAR seven
ENCODING 55
SWIDTH 500 0
DWIDTH 9 0
BBX 9 13 0 0
BITMAP
3F80
3F80
7F80
4300
0600
0E00
1C00
1800
3800
7000
7000
E000
E000
ENDCHAR
STARTCHAR eight
ENCODING 56
SWIDTH 500 0
DWIDTH 9 0
BBX 9 13 0 0
BITMAP
1E00
3B00
7180
7180
3B00
1E00
3E00
7600
C700
C700
C700
EF00
3C00
ENDCHAR
STARTCHAR nine
ENCODING 57
SWIDTH 500 0
DWIDTH 9 0
BBX 9 13 -1 0
BITMAP
1E00
3B00
7180
7180
7180
7380
3380
1F00
0700
0E00
1C00
3800
E000
ENDCHAR
STARTCHAR colon
ENCODING 58
SWIDTH 333 0
DWIDTH 6 0
BBX 4 8 1 0
BITMAP
30
30
00
00
00
00
C0
C0
ENDCHAR
STARTCHAR semicolon
ENCODING 59
SWIDTH 333 0
DWIDTH 7 0
BBX 5 10 0 -2
BITMAP
18
18
00
00
00
00
60
60
20
C0
ENDCHAR
STARTCHAR less
ENCODING 60
SWIDTH 570 0
DWIDTH 12 0
BBX 9 8 1 0
BITMAP
0380
0E00
3800
E000
E000
3800
0E00
0380
ENDCHAR
STARTCHAR equal
ENCODING 61
SWIDTH 570 0
DWIDTH 11 0
BBX 8 5 1 2
BITMAP
FF
FF
00
FF
FF
ENDCHAR
STARTCHAR greater
ENCODING 62
SWIDTH 570 0
DWIDTH 12 0
BBX 9 8 2 0
BITMAP
E000
3800
0E00
0380
0380
0E00
3800
E000
ENDCHAR
STARTCHAR question
ENCODING 63
SWIDTH 500 0
DWIDTH 9 0
BBX 7 13 2 0
BITMAP
3C
66
66
0E
1E
3C
30
60
60
40
00
C0
C0
ENDCHAR
STARTCHAR at
ENCODING 64
SWIDTH 832 0
DWIDTH 17 0
BBX 15 15 1 -3
BITMAP
03E0
0F38
1C0C
3804
71D6
6372
E672
C462
CC66
CCE4
EFEC
6738
7000
3C30
0FC0
ENDCHAR
STARTCHAR A
ENCODING 65
SWIDTH 667 0
DWIDTH 13 0
BBX 14 13 -1 0
BITMAP
00C0
01C0
01C0
03E0
02E0
0660
0C70
0C70
1FF0
1870
3038
7038
F87C
ENDCHAR
STARTCHAR B
ENCODING 66
SWIDTH 667 0
DWIDTH 13 0
BBX 12 13 0 0
BITMAP
3FE0
1CF0
1C70
1C70
1860
3FC0
38E0
3870
3070
7070
70F0
71E0
FF80
ENDCHAR
STARTCHAR C
ENCODING 67
SWIDTH 667 0
DWIDTH 13 0
BBX 12 13 1 0
BITMAP
07D0
1E70
3830
7030
7000
6000
E000
E000
E000
F000
7060
7DC0
1F00
ENDCHAR
STARTCHAR D
ENCODING 68
SWIDTH 722 0
DWIDTH 14 0
BBX 13 13 0 0
BITMAP
3F80
1DE0
1C70
1C70
3838
3838
3838
3838
7070
70F0
70E0
73C0
FF00
ENDCHAR
STARTCHAR E
ENCODING 69
SWIDTH 667 0
DWIDTH 12 0
BBX 12 13 0 0
BITMAP
3FF0
1C70
1C20
1C20
3880
3980
3F80
3980
3100
7020
7060
70E0
FFC0
ENDCHAR
STARTCHAR F
ENCODING 70
SWIDTH 667 0
DWIDTH 12 0
BBX 12 13 0 0
BITMAP
3FF0
1C70
1C20
1C20
1880
3980
3F80
3980
3100
7000
7000
7000
F800
ENDCHAR
STARTCHAR G
ENCODING 71
SWIDTH 722 0
DWIDTH 14 0
BBX 12 13 1 0
BITMAP
07D0
1E70
3830
7030
7000
6000
E000
E1F0
E0E0
F0E0
70C0
7DC0
1FC0
ENDCHAR
STARTCHAR H
ENCODING 72
SWIDTH 778 0
DWIDTH 15 0
BBX 15 13 0 0
BITMAP
3E3E
1C1C
1C1C
1C1C
3838
3838
3FF8
3838
3838
7070
7070
7070
F8F8
ENDCHAR
STARTCHAR I
ENCODING 73
SWIDTH 389 0
DWIDTH 7 0
BBX 7 13 0 0
BITMAP
3E
1C
1C
1C
38
38
38
38
70
70
70
70
F8
ENDCHAR
STARTCHAR J
ENCODING 74
SWIDTH 500 0
DWIDTH 9 0
BBX 10 14 -1 -1
BITMAP
07C0
0380
0380
0300
0700
0700
0700
0600
0E00
0E00
0E00
EC00
FC00
7000
ENDCHAR
STARTCHAR K
ENCODING 75
SWIDTH 667 0
DWIDTH 12 0
BBX 14 13 -1 0
BITMAP
3E7C
1C30
1C60
1CC0
3980
3F00
3F00
3B80
3B80
71C0
71C0
70E0
F9F0
ENDCHAR
STARTCHAR L
ENCODING 76
SWIDTH 611 0
DWIDTH 11 0
BBX 11 13 0 0
BITMAP
3E00
1C00
1C00
1C00
3800
3800
3800
3800
3000
7060
7060
71C0
FFC0
ENDCHAR
STARTCHAR M
ENCODING 77
SWIDTH 889 0
DWIDTH 17 0
BBX 18 13 0 0
BITMAP
3E0FC0
1E0F80
1E1F00
1E1700
1F3600
372600
376E00
374E00
33CC00
638C00
639C00
631C00
F23E00
ENDCHAR
STARTCHAR N
ENCODING 78
SWIDTH 722 0
DWIDTH 13 0
BBX 15 13 -1 0
BITMAP
3C1E
1C0C
1E0C
1E0C
1B18
3398
3398
31D8
31D0
60F0
60F0
6060
F060
ENDCHAR
STARTCHAR O
ENCODING 79
SWIDTH 722 0
DWIDTH 14 0
BBX 12 13 1 0
BITMAP
07C0
1EE0
3870
7070
7070
E070
E070
E070
E0E0
E0E0
E1C0
7780
3E00
ENDCHAR
STARTCHAR P
ENCODING 80
SWIDTH 611 0
DWIDTH 11 0
BBX 12 13 0 0
BITMAP
3FE0
1CF0
1C70
1C70
3870
38E0
3FC0
3800
3000
7000
7000
7000
F800
ENDCHAR
STARTCHAR Q
ENCODING 81
SWIDTH 722 0
DWIDTH 14 0
BBX 12 16 1 -3
BITMAP
07C0
1EE0
3870
7070
7070
E070
E070
E070
E0E0
E0E0
E1C0
7780
3E20
1860
7FC0
C780
ENDCHAR
STARTCHAR R
ENCODING 82
SWIDTH 667 0
DWIDTH 12 0
BBX 12 13 0 0
BITMAP
3FE0
1CF0
1C70
1C70
3870
38E0
3FC0
3F80
3B80
71C0
71C0
70E0
F8F0
ENDCHAR
STARTCHAR S
ENCODING 83
SWIDTH 556 0
DWIDTH 11 0
BBX 10 13 0 0
BITMAP
0F40
1DC0
38C0
38C0
3C00
1E00
0F00
0F80
0780
C380
C380
E700
FE00
ENDCHAR
STARTCHAR T
ENCODING 84
SWIDTH 611 0
DWIDTH 11 0
BBX 11 13 1 0
BITMAP
FFE0
CE60
8E20
0E00
1C00
1C00
1C00
1C00
1800
3800
3800
3800
7C00
ENDCHAR
STARTCHAR U
ENCODING 85
SWIDTH 722 0
DWIDTH 14 0
BBX 14 13 1 0
BITMAP
7E7C
3838
3830
7830
7060
7060
7060
F060
E0C0
E0C0
E0C0
F180
7F00
ENDCHAR
STARTCHAR V
ENCODING 86
SWIDTH 667 0
DWIDTH 13 0
BBX 12 13 2 0
BITMAP
F9F0
70E0
70C0
7180
7180
7300
7600
7600
7C00
7800
7800
7000
6000
ENDCHAR
STARTCHAR W
ENCODING 87
SWIDTH 889 0
DWIDTH 17 0
BBX 17 13 1 0
BITMAP
F3E780
71C300
71C600
71C400
71CC00
73C800
73D800
75D000
3CF000
38E000
38E000
30C000
30C000
ENDCHAR
STARTCHAR X
ENCODING 88
SWIDTH 667 0
DWIDTH 13 0
BBX 15 13 -1 0
BITMAP
3F3E
0E18
0E30
0760
07C0
0380
0380
07C0
0DC0
19C0
30E0
60E0
F1F8
ENDCHAR
STARTCHAR Y
ENCODING 89
SWIDTH 611 0
DWIDTH 11 0
BBX 12 13 0 0
BITMAP
F8F0
7060
70C0
3980
3B00
1E00
1C00
1C00
1C00
3800
3800
3800
FE00
ENDCHAR
STARTCHAR Z
ENCODING 90
SWIDTH 611 0
DWIDTH 11 0
BBX 13 13 -1 0
BITMAP
1FF8
38F0
20E0
01C0
0380
0700
0F00
0E00
1C00
3820
7060
F0E0
FFC0
ENDCHAR
STARTCHAR bracketleft
ENCODING 91
SWIDTH 333 0
DWIDTH 6 0
BBX 8 16 -1 -3
BITMAP
0F
0C
18
18
18
18
30
30
30
30
60
60
60
60
C0
F0
ENDCHAR
STARTCHAR backslash
ENCODING 92
SWIDTH 278 0
DWIDTH 8 0
BBX 6 13 1 0
BITMAP
C0
C0
60
60
60
30
30
18
18
18
0C
0C
0C
ENDCHAR
STARTCHAR bracketright
ENCODING 93
SWIDTH 333 0
DWIDTH 6 0
BBX 8 16 -2 -3
BITMAP
0F
03
06
06
06
06
0C
0C
0C
0C
18
18
18
18
30
F0
ENDCHAR
STARTCHAR asciicircum
ENCODING 94
SWIDTH 570 0
DWIDTH 11 0
BBX 9 8 1 5
BITMAP
0800
1C00
1C00
3600
6300
6300
C180
C180
ENDCHAR
STARTCHAR underscore
ENCODING 95
SWIDTH 500 0
DWIDTH 9 0
BBX 9 1 0 -3
BITMAP
FF80
ENDCHAR
STARTCHAR grave
ENCODING 96
SWIDTH 333 0
DWIDTH 6 0
BBX 5 3 1 10
BITMAP
E0
70
18
ENDCHAR
STARTCHAR a
ENCODING 97
SWIDTH 500 0
DWIDTH 10 0
BBX 10 9 0 0
BITMAP
1E80
7B80
7380
E380
E300
E700
E700
6F40
3B80
ENDCHAR
STARTCHAR b
ENCODING 98
SWIDTH 500 0
DWIDTH 9 0
BBX 10 14 -1 0
BITMAP
3C00
1C00
1C00
1800
1800
3B80
3DC0
39C0
39C0
39C0
7180
7380
7300
FC00
ENDCHAR
STARTCHAR c
ENCODING 99
SWIDTH 444 0
DWIDTH 8 0
BBX 8 9 0 0
BITMAP
1F
7B
60
E0
E0
E0
E0
76
3C
ENDCHAR
STARTCHAR d
ENCODING 100
SWIDTH 500 0
DWIDTH 9 0
BBX 10 14 0 0
BITMAP
03C0
01C0
01C0
0180
0380
1B80
7780
6380
E300
E300
E700
E700
EF40
7B80
ENDCHAR
STARTCHAR e
ENCODING 101
SWIDTH 444 0
DWIDTH 9 0
BBX 8 9 0 0
BITMAP
1E
77
67
E7
EE
F8
E3
F6
7C
ENDCHAR
STARTCHAR f
ENCODING 102
SWIDTH 333 0
DWIDTH 6 0
BBX 11 18 -2 -4
BITMAP
03C0
0760
0660
0E00
0E00
3F80
0E00
0E00
0E00
0C00
1C00
1C00
1C00
1800
1800
D800
D800
7000
ENDCHAR
STARTCHAR g
ENCODING 103
SWIDTH 500 0
DWIDTH 8 0
BBX 10 13 -1 -4
BITMAP
1F40
3B80
7180
6180
6380
7700
3E00
7000
3E00
6F80
C380
C300
7E00
ENDCHAR
STARTCHAR h
ENCODING 104
SWIDTH 556 0
DWIDTH 11 0
BBX 10 14 1 0
BITMAP
7800
3800
3800
3000
7000
7700
7F80
7380
7380
6380
E700
E700
E740
E380
ENDCHAR
STARTCHAR i
ENCODING 105
SWIDTH 278 0
DWIDTH 5 0
BBX 5 14 0 0
BITMAP
30
30
30
00
00
F0
70
70
60
60
E0
E0
E8
70
ENDCHAR
STARTCHAR j
ENCODING 106
SWIDTH 278 0
DWIDTH 4 0
BBX 7 18 -3 -4
BITMAP
06
06
06
00
00
1E
0E
0E
0E
0C
1C
1C
1C
18
18
D8
F0
60
ENDCHAR
STARTCHAR k
ENCODING 107
SWIDTH 500 0
DWIDTH 9 0
BBX 10 14 -1 0
BITMAP
3C00
1C00
1C00
1800
3800
3BC0
3380
3600
7C00
7C00
7400
7600
E780
E700
ENDCHAR
STARTCHAR l
ENCODING 108
SWIDTH 278 0
DWIDTH 5 0
BBX 5 14 0 0
BITMAP
78
38
38
30
70
70
70
70
60
E0
E0
E0
E8
70
ENDCHAR
STARTCHAR m
ENCODING 109
SWIDTH 778 0
DWIDTH 14 0
BBX 14 9 0 0
BITMAP
F770
7BB8
7338
7338
7338
F230
E670
E674
E678
ENDCHAR
STARTCHAR n
ENCODING 110
SWIDTH 556 0
DWIDTH 10 0
BBX 10 9 0 0
BITMAP
F700
7B80
7380
7380
7380
6300
E700
E740
E380
ENDCHAR
STARTCHAR o
ENCODING 111
SWIDTH 500 0
DWIDTH 10 0
BBX 9 9 0 0
BITMAP
1F00
7380
6380
E380
E380
E380
E300
E700
7C00
ENDCHAR
STARTCHAR p
ENCODING 112
SWIDTH 500 0
DWIDTH 9 0
BBX 11 13 -2 -4
BITMAP
3BC0
1EE0
1CE0
1CE0
1CE0
38C0
39C0
3980
3700
3000
7000
7000
F800
ENDCHAR
STARTCHAR q
ENCODING 113
SWIDTH 500 0
DWIDTH 9 0
BBX 9 13 0 -4
BITMAP
1D80
7780
6380
E380
C300
C700
E700
FF00
3600
0600
0E00
0E00
1F00
ENDCHAR
STARTCHAR r
ENCODING 114
SWIDTH 389 0
DWIDTH 6 0
BBX 7 9 0 0
BITMAP
EE
7E
70
70
70
60
E0
E0
E0
ENDCHAR
STARTCHAR s
ENCODING 115
SWIDTH 389 0
DWIDTH 7 0
BBX 8 9 -1 0
BITMAP
3E
77
72
38
1C
1C
4E
EE
7C
ENDCHAR
STARTCHAR t
ENCODING 116
SWIDTH 278 0
DWIDTH 6 0
BBX 6 11 0 0
BITMAP
30
70
FC
70
70
70
60
E0
E0
E8
70
ENDCHAR
STARTCHAR u
ENCODING 117
SWIDTH 556 0
DWIDTH 10 0
BBX 10 9 0 0
BITMAP
F380
7380
7380
6300
6700
E700
EF00
FB40
7380
ENDCHAR
STARTCHAR v
ENCODING 118
SWIDTH 444 0
DWIDTH 7 0
BBX 8 9 -1 0
BITMAP
E7
63
73
72
32
36
3C
38
30
ENDCHAR
STARTCHAR w
ENCODING 119
SWIDTH 667 0
DWIDTH 11 0
BBX 12 9 -1 0
BITMAP
E330
6330
6330
77A0
77A0
35A0
3DC0
3980
1080
ENDCHAR
STARTCHAR x
ENCODING 120
SWIDTH 500 0
DWIDTH 9 0
BBX 9 9 0 0
BITMAP
7B80
3B00
1E00
1C00
1C00
3C00
6E00
CE80
E700
ENDCHAR
STARTCHAR y
ENCODING 121
SWIDTH 444 0
DWIDTH 7 0
BBX 9 13 -2 -4
BITMAP
7B80
3980
3980
3980
1900
1B00
1E00
0E00
0C00
0C00
C800
D800
7000
ENDCHAR
STARTCHAR z
ENCODING 122
SWIDTH 389 0
DWIDTH 7 0
BBX 7 10 0 -1
BITMAP
3E
7E
4C
18
18
30
60
E6
F6
1C
ENDCHAR
STARTCHAR braceleft
ENCODING 123
SWIDTH 348 0
DWIDTH 6 0
BBX 7 17 0 -3
BITMAP
0E
18
30
30
30
30
60
C0
60
60
60
60
C0
C0
C0
C0
70
ENDCHAR
STARTCHAR bar
ENCODING 124
SWIDTH 220 0
DWIDTH 6 0
BBX 2 17 2 -3
BITMAP
C0
C0
C0
C0
C0
C0
C0
C0
C0
C0
C0
C0
C0
C0
C0
C0
C0
ENDCHAR
STARTCHAR braceright
ENCODING 125
SWIDTH 348 0
DWIDTH 7 0
BBX 7 17 -1 -3
BITMAP
1C
06
06
06
06
0C
0C
0C
06
06
0C
18
18
18
18
30
E0
ENDCHAR
STARTCHAR asciitilde
ENCODING 126
SWIDTH 570 0
DWIDTH 10 0
BBX 8 4 1 4
BITMAP
71
FF
8E
8E
ENDCHAR
STARTCHAR space
ENCODING 160
SWIDTH 250 0
DWIDTH 4 0
BBX 1 1 0 0
BITMAP
00
ENDCHAR
STARTCHAR exclamdown
ENCODING 161
SWIDTH 389 0
DWIDTH 6 0
BBX 6 13 -1 -4
BITMAP
0C
0C
00
00
08
18
38
30
70
70
60
E0
E0
ENDCHAR
STARTCHAR cent
ENCODING 162
SWIDTH 500 0
DWIDTH 9 0
BBX 8 12 0 -2
BITMAP
01
02
1F
77
64
E8
E8
F0
F6
7C
20
40
ENDCHAR
STARTCHAR sterling
ENCODING 163
SWIDTH 500 0
DWIDTH 9 0
BBX 10 13 -1 0
BITMAP
0380
06C0
0CC0
0C00
1C00
1800
7F00
1800
1800
3800
7C40
DF80
E700
ENDCHAR
STARTCHAR currency
ENCODING 164
SWIDTH 500 0
DWIDTH 9 0
BBX 8 9 0 1
BITMAP
C3
7E
E7
C3
C3
C3
E7
7E
C3
ENDCHAR
STARTCHAR yen
ENCODING 165
SWIDTH 500 0
DWIDTH 10 0
BBX 11 13 0 0
BITMAP
F9E0
70C0
7180
3900
3B00
1E00
7F00
1C00
7F00
1800
3800
3800
7E00
ENDCHAR
STARTCHAR brokenbar
ENCODING 166
SWIDTH 220 0
DWIDTH 6 0
BBX 2 13 2 0
BITMAP
C0
C0
C0
C0
C0
00
00
00
C0
C0
C0
C0
C0
ENDCHAR
STARTCHAR section
ENCODING 167
SWIDTH 500 0
DWIDTH 9 0
BBX 9 16 0 -3
BITMAP
0F00
1B80
1380
1800
1C00
2E00
6700
6300
6300
7300
3A00
1C00
0C00
E400
EC00
7800
ENDCHAR
STARTCHAR dieresis
ENCODING 168
SWIDTH 333 0
DWIDTH 7 0
BBX 6 2 1 11
BITMAP
CC
CC
ENDCHAR
STARTCHAR copyright
ENCODING 169
SWIDTH 747 0
DWIDTH 15 0
BBX 13 13 1 0
BITMAP
0F80
38E0
6030
4FD0
DCD8
9848
9808
9808
DCD8
4F90
6030
38E0
0F80
ENDCHAR
STARTCHAR ordfeminine
ENCODING 170
SWIDTH 266 0
DWIDTH 7 0
BBX 7 7 0 6
BITMAP
1E
36
6C
6E
74
00
F8
ENDCHAR
STARTCHAR guillemotleft
ENCODING 171
SWIDTH 500 0
DWIDTH 10 0
BBX 9 8 0 0
BITMAP
0880
1980
3300
6600
CC00
6600
3300
1100
ENDCHAR
STARTCHAR logicalnot
ENCODING 172
SWIDTH 606 0
DWIDTH 11 0
BBX 9 6 1 1
BITMAP
FF80
FF80
0180
0180
0180
0180
ENDCHAR
STARTCHAR hyphen
ENCODING 173
SWIDTH 333 0
DWIDTH 6 0
BBX 5 2 0 4
BITMAP
F8
F8
ENDCHAR
STARTCHAR registered
ENCODING 174
SWIDTH 747 0
DWIDTH 15 0
BBX 13 13 1 0
BITMAP
0F80
38E0
6030
5F90
CCD8
8CC8
8F88
8D88
CCD8
5EF0
6030
38E0
0F80
ENDCHAR
STARTCHAR macron
ENCODING 175
SWIDTH 333 0
DWIDTH 6 0
BBX 5 1 1 11
BITMAP
F8
ENDCHAR
STARTCHAR degree
ENCODING 176
SWIDTH 400 0
DWIDTH 7 0
BBX 6 5 1 8
BITMAP
78
CC
CC
CC
78
ENDCHAR
STARTCHAR plusminus
ENCODING 177
SWIDTH 570 0
DWIDTH 10 0
BBX 8 11 1 0
BITMAP
18
18
18
FF
FF
18
18
18
00
FF
FF
ENDCHAR
STARTCHAR twosuperior
ENCODING 178
SWIDTH 300 0
DWIDTH 5 0
BBX 6 8 -1 5
BITMAP
38
4C
0C
18
10
20
64
F8
ENDCHAR
STARTCHAR threesuperior
ENCODING 179
SWIDTH 300 0
DWIDTH 5 0
BBX 6 8 0 5
BITMAP
38
4C
18
30
18
18
B0
E0
ENDCHAR
STARTCHAR acute
ENCODING 180
SWIDTH 333 0
DWIDTH 6 0
BBX 5 3 1 10
BITMAP
38
70
C0
ENDCHAR
STARTCHAR mu
ENCODING 181
SWIDTH 576 0
DWIDTH 10 0
BBX 12 13 -2 -4
BITMAP
3CE0
1CE0
1CC0
18C0
19C0
39C0
3BC0
3ED0
7CE0
6000
4000
E000
6000
ENDCHAR
STARTCHAR paragraph
ENCODING 182
SWIDTH 500 0
DWIDTH 10 0
BBX 9 17 1 -4
BITMAP
0F80
3D00
7D00
FA00
FA00
FA00
FA00
7400
1400
1400
2800
2800
2800
2800
5000
5000
5000
ENDCHAR
STARTCHAR periodcentered
ENCODING 183
SWIDTH 250 0
DWIDTH 5 0
BBX 3 2 1 4
BITMAP
E0
E0
ENDCHAR
STARTCHAR cedilla
ENCODING 184
SWIDTH 333 0
DWIDTH 6 0
BBX 5 4 -1 -4
BITMAP
30
38
98
70
ENDCHAR
STARTCHAR onesuperior
ENCODING 185
SWIDTH 300 0
DWIDTH 5 0
BBX 4 8 0 5
BITMAP
10
70
30
30
60
60
60
F0
ENDCHAR
STARTCHAR ordmasculine
ENCODING 186
SWIDTH 300 0
DWIDTH 7 0
BBX 7 7 0 6
BITMAP
1C
36
66
6C
38
00
F8
ENDCHAR
STARTCHAR guillemotright
ENCODING 187
SWIDTH 500 0
DWIDTH 11 0
BBX 9 8 1 0
BITMAP
4400
6600
3300
1980
3300
6600
CC00
8800
ENDCHAR
STARTCHAR onequarter
ENCODING 188
SWIDTH 750 0
DWIDTH 13 0
BBX 12 13 0 0
BITMAP
1060
70C0
30C0
3180
6180
6330
6270
F6E0
0CA0
0D60
1BF0
18C0
30C0
ENDCHAR
STARTCHAR onehalf
ENCODING 189
SWIDTH 750 0
DWIDTH 13 0
BBX 13 13 0 0
BITMAP
1060
70C0
30C0
3180
6180
6370
6298
F618
0C30
0C20
1840
18C8
31F0
ENDCHAR
STARTCHAR threequarters
ENCODING 190
SWIDTH 750 0
DWIDTH 13 0
BBX 12 13 0 0
BITMAP
3860
4CC0
18C0
3180
1980
1B30
B270
E6E0
0CA0
0D60
1BF0
18C0
30C0
ENDCHAR
STARTCHAR questiondown
ENCODING 191
SWIDTH 500 0
DWIDTH 9 0
BBX 7 13 0 -4
BITMAP
06
06
00
04
0C
0C
18
78
F0
E0
CC
CC
78
ENDCHAR
STARTCHAR Agrave
ENCODING 192
SWIDTH 667 0
DWIDTH 13 0
BBX 14 17 -1 0
BITMAP
0380
01C0
0060
0000
00C0
01C0
01C0
03E0
02E0
0660
0C70
0C70
1FF0
1870
3038
7038
F87C
ENDCHAR
STARTCHAR Aacute
ENCODING 193
SWIDTH 667 0
DWIDTH 13 0
BBX 14 17 -1 0
BITMAP
0038
0070
00C0
0000
00C0
01C0
01C0
03E0
02E0
0660
0C70
0C70
1FF0
1870
3038
7038
F87C
ENDCHAR
STARTCHAR Acircumflex
ENCODING 194
SWIDTH 667 0
DWIDTH 13 0
BBX 14 17 -1 0
BITMAP
00C0
01E0
0330
0000
00C0
01C0
01C0
03E0
02E0
0660
0C70
0C70
1FF0
1870
3038
7038
F87C
ENDCHAR
STARTCHAR Atilde
ENCODING 195
SWIDTH 667 0
DWIDTH 13 0
BBX 14 17 -1 0
BITMAP
0190
03F0
0260
0000
00C0
01C0
01C0
03E0
02E0
0660
0C70
0C70
1FF0
1870
3038
7038
F87C
ENDCHAR
STARTCHAR Adieresis
ENCODING 196
SWIDTH 667 0
DWIDTH 13 0
BBX 14 16 -1 0
BITMAP
0330
0330
0000
00C0
01C0
01C0
03E0
02E0
0660
0C70
0C70
1FF0
1870
3038
7038
F87C
ENDCHAR
STARTCHAR Aring
ENCODING 197
SWIDTH 667 0
DWIDTH 13 0
BBX 14 18 -1 0
BITMAP
00E0
01B0
01B0
00E0
0000
00C0
01C0
01C0
03E0
02E0
0660
0C70
0C70
1FF0
1870
3038
7038
F87C
ENDCHAR
STARTCHAR AE
ENCODING 198
SWIDTH 944 0
DWIDTH 18 0
BBX 19 13 -1 0
BITMAP
01FFE0
00F8E0
01B840
033840
033100
067300
0C7F00
0C7300
1FE200
18E040
30E0C0
70E1C0
F9FF80
ENDCHAR
STARTCHAR Ccedilla
ENCODING 199
SWIDTH 667 0
DWIDTH 13 0
BBX 12 17 1 -4
BITMAP
07D0
1E70
3830
7030
7000
6000
E000
E000
E000
F000
7060
7DC0
1F00
0600
0700
1300
0E00
ENDCHAR
STARTCHAR Egrave
ENCODING 200
SWIDTH 667 0
DWIDTH 12 0
BBX 12 17 0 0
BITMAP
0E00
0700
0180
0000
3FF0
1C70
1C20
1C20
3880
3980
3F80
3980
3100
7020
7060
70E0
FFC0
ENDCHAR
STARTCHAR Eacute
ENCODING 201
SWIDTH 667 0
DWIDTH 12 0
BBX 12 17 0 0
BITMAP
00E0
01C0
0300
0000
3FF0
1C70
1C20
1C20
3880
3980
3F80
3980
3100
7020
7060
70E0
FFC0
ENDCHAR
STARTCHAR Ecircumflex
ENCODING 202
SWIDTH 667 0
DWIDTH 12 0
BBX 12 17 0 0
BITMAP
0180
03C0
0660
0000
3FF0
1C70
1C20
1C20
3880
3980
3F80
3980
3100
7020
7060
70E0
FFC0
ENDCHAR
STARTCHAR Edieresis
ENCODING 203
SWIDTH 667 0
DWIDTH 12 0
BBX 12 16 0 0
BITMAP
0660
0660
0000
3FF0
1C70
1C20
1C20
3880
3980
3F80
3980
3100
7020
7060
70E0
FFC0
ENDCHAR
STARTCHAR Igrave
ENCODING 204
SWIDTH 389 0
DWIDTH 7 0
BBX 7 17 0 0
BITMAP
38
1C
06
00
3E
1C
1C
1C
38
38
38
38
70
70
70
70
F8
ENDCHAR
STARTCHAR Iacute
ENCODING 205
SWIDTH 389 0
DWIDTH 7 0
BBX 8 17 0 0
BITMAP
07
0E
18
00
3E
1C
1C
1C
38
38
38
38
70
70
70
70
F8
ENDCHAR
STARTCHAR Icircumflex
ENCODING 206
SWIDTH 389 0
DWIDTH 7 0
BBX 8 17 0 0
BITMAP
0C
1E
33
00
3E
1C
1C
1C
38
38
38
38
70
70
70
70
F8
ENDCHAR
STARTCHAR Idieresis
ENCODING 207
SWIDTH 389 0
DWIDTH 7 0
BBX 8 16 0 0
BITMAP
33
33
00
3E
1C
1C
1C
38
38
38
38
70
70
70
70
F8
ENDCHAR
STARTCHAR Eth
ENCODING 208
SWIDTH 722 0
DWIDTH 14 0
BBX 13 13 0 0
BITMAP
3F80
1DE0
1C70
1C70
3838
FF38
FF38
3838
7070
70F0
70E0
73C0
FF00
ENDCHAR
STARTCHAR Ntilde
ENCODING 209
SWIDTH 722 0
DWIDTH 13 0
BBX 15 17 -1 0
BITMAP
0190
03F0
0260
0000
3C1E
1C0C
1E0C
1E0C
1B18
3398
3398
31D8
31D0
60F0
60F0
6060
F060
ENDCHAR
STARTCHAR Ograve
ENCODING 210
SWIDTH 722 0
DWIDTH 14 0
BBX 12 17 1 0
BITMAP
0E00
0700
0180
0000
07C0
1EE0
3870
7070
7070
E070
E070
E070
E0E0
E0E0
E1C0
7780
3E00
ENDCHAR
STARTCHAR Oacute
ENCODING 211
SWIDTH 722 0
DWIDTH 14 0
BBX 12 17 1 0
BITMAP
0070
00E0
0180
0000
07C0
1EE0
3870
7070
7070
E070
E070
E070
E0E0
E0E0
E1C0
7780
3E00
ENDCHAR
STARTCHAR Ocircumflex
ENCODING 212
SWIDTH 722 0
DWIDTH 14 0
BBX 12 17 1 0
BITMAP
0180
03C0
0660
0000
07C0
1EE0
3870
7070
7070
E070
E070
E070
E0E0
E0E0
E1C0
7780
3E00
ENDCHAR
STARTCHAR Otilde
ENCODING 213
SWIDTH 722 0
DWIDTH 14 0
BBX 12 17 1 0
BITMAP
0640
0FC0
0980
0000
07C0
1EE0
3870
7070
7070
E070
E070
E070
E0E0
E0E0
E1C0
7780
3E00
ENDCHAR
STARTCHAR Odieresis
ENCODING 214
SWIDTH 722 0
DWIDTH 14 0
BBX 12 16 1 0
BITMAP
0660
0660
0000
07C0
1EE0
3870
7070
7070
E070
E070
E070
E0E0
E0E0
E1C0
7780
3E00
ENDCHAR
STARTCHAR multiply
ENCODING 215
SWIDTH 570 0
DWIDTH 10 0
BBX 11 10 0 0
BITMAP
C060
60C0
3180
1B00
0E00
0E00
1B00
3180
60C0
C060
ENDCHAR
STARTCHAR Oslash
ENCODING 216
SWIDTH 722 0
DWIDTH 14 0
BBX 14 16 0 -2
BITMAP
000C
03F8
0F70
1C78
38F8
38B8
71B8
7338
7638
7470
7C70
78E0
3BC0
3F00
6000
C000
ENDCHAR
STARTCHAR Ugrave
ENCODING 217
SWIDTH 722 0
DWIDTH 14 0
BBX 14 17 1 0
BITMAP
0700
0380
00C0
0000
7E7C
3838
3830
7830
7060
7060
7060
F060
E0C0
E0C0
E0C0
F180
7F00
ENDCHAR
STARTCHAR Uacute
ENCODING 218
SWIDTH 722 0
DWIDTH 14 0
BBX 14 17 1 0
BITMAP
0070
00E0
0180
0000
7E7C
3838
3830
7830
7060
7060
7060
F060
E0C0
E0C0
E0C0
F180
7F00
ENDCHAR
STARTCHAR Ucircumflex
ENCODING 219
SWIDTH 722 0
DWIDTH 14 0
BBX 14 17 1 0
BITMAP
0180
03C0
0660
0000
7E7C
3838
3830
7830
7060
7060
7060
F060
E0C0
E0C0
E0C0
F180
7F00
ENDCHAR
STARTCHAR Udieresis
ENCODING 220
SWIDTH 722 0
DWIDTH 14 0
BBX 14 16 1 0
BITMAP
0660
0660
0000
7E7C
3838
3830
7830
7060
7060
7060
F060
E0C0
E0C0
E0C0
F180
7F00
ENDCHAR
STARTCHAR Yacute
ENCODING 221
SWIDTH 611 0
DWIDTH 11 0
BBX 12 17 0 0
BITMAP
01C0
0380
0600
0000
F8F0
7060
70C0
3980
3B00
1E00
1C00
1C00
1C00
3800
3800
3800
FE00
ENDCHAR
STARTCHAR Thorn
ENCODING 222
SWIDTH 611 0
DWIDTH 11 0
BBX 11 13 0 0
BITMAP
3E00
1C00
1C00
1FC0
39E0
38E0
38E0
38E0
31C0
7F80
7000
7000
F800
ENDCHAR
STARTCHAR germandbls
ENCODING 223
SWIDTH 500 0
DWIDTH 10 0
BBX 12 17 -2 -4
BITMAP
01E0
0370
0670
0670
06E0
0E80
0EC0
0CE0
0CE0
1CE0
1CE0
19C0
1B80
1800
D800
D800
7000
ENDCHAR
STARTCHAR agrave
ENCODING 224
SWIDTH 500 0
DWIDTH 10 0
BBX 10 13 0 0
BITMAP
3800
1C00
0600
0000
1E80
7B80
7380
E380
E300
E700
E700
6F40
3B80
ENDCHAR
STARTCHAR aacute
ENCODING 225
SWIDTH 500 0
DWIDTH 10 0
BBX 10 13 0 0
BITMAP
0380
0700
0C00
0000
1E80
7B80
7380
E380
E300
E700
E700
6F40
3B80
ENDCHAR
STARTCHAR acircumflex
ENCODING 226
SWIDTH 500 0
DWIDTH 10 0
BBX 10 13 0 0
BITMAP
0600
0F00
1980
0000
1E80
7B80
7380
E380
E300
E700
E700
6F40
3B80
ENDCHAR
STARTCHAR atilde
ENCODING 227
SWIDTH 500 0
DWIDTH 10 0
BBX 10 13 0 0
BITMAP
0C80
1F80
1300
0000
1E80
7B80
7380
E380
E300
E700
E700
6F40
3B80
ENDCHAR
STARTCHAR adieresis
ENCODING 228
SWIDTH 500 0
DWIDTH 10 0
BBX 10 12 0 0
BITMAP
1980
1980
0000
1E80
7B80
7380
E380
E300
E700
E700
6F40
3B80
ENDCHAR
STARTCHAR aring
ENCODING 229
SWIDTH 500 0
DWIDTH 10 0
BBX 10 14 0 0
BITMAP
0E00
1B00
1B00
0E00
0000
1E80
7B80
7380
E380
E300
E700
E700
6F40
3B80
ENDCHAR
STARTCHAR ae
ENCODING 230
SWIDTH 722 0
DWIDTH 14 0
BBX 13 9 0 0
BITMAP
1D70
7BB8
7338
E370
E370
E7C0
E718
6FB0
3BE0
ENDCHAR
STARTCHAR ccedilla
ENCODING 231
SWIDTH 444 0
DWIDTH 8 0
BBX 8 13 0 -4
BITMAP
1F
7B
60
E0
E0
E0
E0
76
3C
18
1C
4C
38
ENDCHAR
STARTCHAR egrave
ENCODING 232
SWIDTH 444 0
DWIDTH 9 0
BBX 8 13 0 0
BITMAP
38
1C
06
00
1E
77
67
E7
EE
F8
E3
F6
7C
ENDCHAR
STARTCHAR eacute
ENCODING 233
SWIDTH 444 0
DWIDTH 9 0
BBX 9 13 0 0
BITMAP
0380
0700
0C00
0000
1E00
7700
6700
E700
EE00
F800
E300
F600
7C00
ENDCHAR
STARTCHAR ecircumflex
ENCODING 234
SWIDTH 444 0
DWIDTH 9 0
BBX 8 13 0 0
BITMAP
0C
1E
33
00
1E
77
67
E7
EE
F8
E3
F6
7C
ENDCHAR
STARTCHAR edieresis
ENCODING 235
SWIDTH 444 0
DWIDTH 9 0
BBX 9 12 0 0
BITMAP
1980
1980
0000
1E00
7700
6700
E600
EE00
F800
E300
F600
7C00
ENDCHAR
STARTCHAR igrave
ENCODING 236
SWIDTH 278 0
DWIDTH 5 0
BBX 5 13 0 0
BITMAP
60
70
18
00
F0
70
70
60
60
E0
E0
F0
60
ENDCHAR
STARTCHAR iacute
ENCODING 237
SWIDTH 278 0
DWIDTH 5 0
BBX 5 13 0 0
BITMAP
38
70
C0
00
F0
70
70
60
60
E0
E0
F0
60
ENDCHAR
STARTCHAR icircumflex
ENCODING 238
SWIDTH 278 0
DWIDTH 5 0
BBX 6 13 0 0
BITMAP
30
78
CC
00
F0
70
70
60
60
E0
E0
F0
60
ENDCHAR
STARTCHAR idieresis
ENCODING 239
SWIDTH 278 0
DWIDTH 5 0
BBX 5 12 0 0
BITMAP
D8
D8
00
F0
70
70
60
60
E0
E0
F0
60
ENDCHAR
STARTCHAR eth
ENCODING 240
SWIDTH 500 0
DWIDTH 10 0
BBX 9 13 0 0
BITMAP
3000
1B00
1C00
2600
1F00
7380
6380
E180
C180
C380
E300
E700
7C00
ENDCHAR
STARTCHAR ntilde
ENCODING 241
SWIDTH 556 0
DWIDTH 10 0
BBX 10 13 0 0
BITMAP
1900
3F00
2600
0000
F700
7B80
7380
7380
7380
6300
E700
E740
E780
ENDCHAR
STARTCHAR ograve
ENCODING 242
SWIDTH 500 0
DWIDTH 10 0
BBX 9 13 0 0
BITMAP
3800
1C00
0600
0000
1F00
7380
6380
E380
E380
E380
E300
E700
7C00
ENDCHAR
STARTCHAR oacute
ENCODING 243
SWIDTH 500 0
DWIDTH 10 0
BBX 9 13 0 0
BITMAP
0700
0E00
1800
0000
1F00
7380
6380
E380
E380
E380
E300
E700
7C00
ENDCHAR
STARTCHAR ocircumflex
ENCODING 244
SWIDTH 500 0
DWIDTH 10 0
BBX 9 13 0 0
BITMAP
0C00
1E00
3300
0000
1F00
7380
6380
E380
E380
E380
E300
E700
7C00
ENDCHAR
STARTCHAR otilde
ENCODING 245
SWIDTH 500 0
DWIDTH 10 0
BBX 9 13 0 0
BITMAP
1900
3F00
2600
0000
1F00
7380
6380
E380
E380
E380
E300
E700
7C00
ENDCHAR
STARTCHAR odieresis
ENCODING 246
SWIDTH 500 0
DWIDTH 10 0
BBX 9 12 0 0
BITMAP
3300
3300
0000
1F00
7380
6380
E380
E380
E380
E300
E700
7C00
ENDCHAR
STARTCHAR divide
ENCODING 247
SWIDTH 570 0
DWIDTH 10 0
BBX 8 9 1 1
BITMAP
18
18
00
FF
FF
FF
00
18
18
ENDCHAR
STARTCHAR oslash
ENCODING 248
SWIDTH 500 0
DWIDTH 10 0
BBX 9 13 0 -2
BITMAP
0180
0300
1F00
7780
6580
ED80
C980
DB80
D300
F700
7C00
6000
C000
ENDCHAR
STARTCHAR ugrave
ENCODING 249
SWIDTH 556 0
DWIDTH 10 0
BBX 10 13 0 0
BITMAP
3800
1C00
0600
0000
F380
7380
7300
6300
6700
E700
EF00
FB40
7380
ENDCHAR
STARTCHAR uacute
ENCODING 250
SWIDTH 556 0
DWIDTH 10 0
BBX 10 13 0 0
BITMAP
0700
0E00
1800
0000
F380
7380
7300
6300
6700
E700
EF00
FB40
7380
ENDCHAR
STARTCHAR ucircumflex
ENCODING 251
SWIDTH 556 0
DWIDTH 10 0
BBX 10 13 0 0
BITMAP
0C00
1E00
3300
0000
F380
7380
7300
6300
6700
E700
EF00
FB40
7380
ENDCHAR
STARTCHAR udieresis
ENCODING 252
SWIDTH 556 0
DWIDTH 10 0
BBX 10 12 0 0
BITMAP
3300
3300
0000
F380
7380
7300
6300
6700
E700
EF00
FB40
7380
ENDCHAR
STARTCHAR yacute
ENCODING 253
SWIDTH 444 0
DWIDTH 7 0
BBX 10 17 -2 -4
BITMAP
01C0
0380
0600
0000
7B80
3980
3980
3900
1900
1B00
1E00
0E00
0C00
0C00
C800
D800
7000
ENDCHAR
STARTCHAR thorn
ENCODING 254
SWIDTH 500 0
DWIDTH 9 0
BBX 11 17 -2 -4
BITMAP
1E00
0E00
0C00
0C00
1DC0
1EE0
1CE0
1CE0
1CE0
38E0
39C0
3980
3700
3000
7000
7000
F800
ENDCHAR
STARTCHAR ydieresis
ENCODING 255
SWIDTH 444 0
DWIDTH 7 0
BBX 9 16 -2 -4
BITMAP
1980
1980
0000
7B80
3980
3980
3900
1900
1B00
1E00
0E00
0C00
0C00
C800
D800
7000
ENDCHAR
STARTCHAR Amacron
ENCODING 256
SWIDTH 667 0
DWIDTH 13 0
BBX 14 15 -1 0
BITMAP
03E0
0000
00C0
01C0
01C0
03E0
02E0
0660
0C70
0C70
1FF0
1870
3038
7038
F87C
ENDCHAR
STARTCHAR amacron
ENCODING 257
SWIDTH 500 0
DWIDTH 10 0
BBX 10 11 0 0
BITMAP
1F00
0000
1E80
7B80
7380
E380
E300
E700
E700
6F40
3B80
ENDCHAR
STARTCHAR Abreve
ENCODING 258
SWIDTH 667 0
DWIDTH 13 0
BBX 14 17 -1 0
BITMAP
0220
0360
01C0
0000
00C0
01C0
01C0
03E0
02E0
0660
0C70
0C70
1FF0
1870
3038
7038
F87C
ENDCHAR
STARTCHAR abreve
ENCODING 259
SWIDTH 500 0
DWIDTH 10 0
BBX 10 13 0 0
BITMAP
1100
1B00
0E00
0000
1E80
7B80
7380
E380
E300
E700
E700
6F40
3B80
ENDCHAR
STARTCHAR Aogonek
ENCODING 260
SWIDTH 667 0
DWIDTH 13 0
BBX 14 17 -1 -4
BITMAP
00C0
01C0
01C0
03E0
02E0
0660
0C70
0C70
1FF0
1870
3038
7038
F87C
0300
0600
07C0
0300
ENDCHAR
STARTCHAR aogonek
ENCODING 261
SWIDTH 500 0
DWIDTH 10 0
BBX 10 13 0 -4
BITMAP
1E80
7B80
7380
E380
E300
E700
E700
6F40
3B80
0C00
1800
1F00
0C00
ENDCHAR
STARTCHAR Cacute
ENCODING 262
SWIDTH 667 0
DWIDTH 13 0
BBX 12 17 1 0
BITMAP
01C0
0380
0600
0000
07D0
1E70
3830
7030
7000
6000
E000
E000
E000
F000
7060
7DC0
1F00
ENDCHAR
STARTCHAR cacute
ENCODING 263
SWIDTH 444 0
DWIDTH 8 0
BBX 8 13 0 0
BITMAP
07
0E
18
00
1F
7B
60
E0
E0
E0
E0
76
3C
ENDCHAR
STARTCHAR Ccircumflex
ENCODING 264
SWIDTH 667 0
DWIDTH 13 0
BBX 12 17 1 0
BITMAP
0300
0780
0CC0
0000
07D0
1E70
3830
7030
7000
6000
E000
E000
E000
F000
7060
7DC0
1F00
ENDCHAR
STARTCHAR ccircumflex
ENCODING 265
SWIDTH 444 0
DWIDTH 8 0
BBX 8 13 0 0
BITMAP
18
3C
66
00
1F
7B
60
E0
E0
E0
E0
76
3C
ENDCHAR
STARTCHAR Cdotaccent
ENCODING 266
SWIDTH 667 0
DWIDTH 13 0
BBX 12 16 1 0
BITMAP
0300
0300
0000
07D0
1E70
3830
7030
7000
6000
E000
E000
E000
F000
7060
7DC0
1F00
ENDCHAR
STARTCHAR cdotaccent
ENCODING 267
SWIDTH 444 0
DWIDTH 8 0
BBX 8 12 0 0
BITMAP
18
18
00
1F
7B
60
E0
E0
E0
E0
76
3C
ENDCHAR
STARTCHAR Ccaron
ENCODING 268
SWIDTH 667 0
DWIDTH 13 0
BBX 12 17 1 0
BITMAP
0CC0
0780
0300
0000
07D0
1E70
3830
7030
7000
6000
E000
E000
E000
F000
7060
7DC0
1F00
ENDCHAR
STARTCHAR ccaron
ENCODING 269
SWIDTH 444 0
DWIDTH 8 0
BBX 8 13 0 0
BITMAP
66
3C
18
00
1F
7B
60
E0
E0
E0
E0
76
3C
ENDCHAR
STARTCHAR Dcaron
ENCODING 270
SWIDTH 722 0
DWIDTH 14 0
BBX 13 17 0 0
BITMAP
0CC0
0780
0300
0000
3F80
1DE0
1C70
1C70
3838
3838
3838
3838
7070
70F0
70E0
73C0
FF00
ENDCHAR
STARTCHAR dcaron
ENCODING 271
SWIDTH 808 0
DWIDTH 14 0
BBX 14 14 0 0
BITMAP
03C0
01DC
01DC
018C
0388
1B90
7780
6380
E300
E300
E700
E700
EF40
7B80
ENDCHAR
STARTCHAR Dcroat
ENCODING 272
SWIDTH 722 0
DWIDTH 14 0
BBX 13 13 0 0
BITMAP
3F80
1DE0
1C70
1C70
3838
FF38
FF38
3838
7070
70F0
70E0
73C0
FF00
ENDCHAR
STARTCHAR dcroat
ENCODING 273
SWIDTH 500 0
DWIDTH 9 0
BBX 11 14 0 0
BITMAP
03C0
01C0
01C0
0FE0
0380
1B80
7780
6380
E300
E300
E700
E700
EF40
7B80
ENDCHAR
STARTCHAR Emacron
ENCODING 274
SWIDTH 667 0
DWIDTH 12 0
BBX 12 15 0 0
BITMAP
0F80
0000
3FF0
1C70
1C20
1C20
3880
3980
3F80
3980
3100
7020
7060
70E0
FFC0
ENDCHAR
STARTCHAR emacron
ENCODING 275
SWIDTH 444 0
DWIDTH 9 0
BBX 8 11 0 0
BITMAP
3E
00
1E
77
67
E7
EE
F8
E3
F6
7C
ENDCHAR
STARTCHAR Ebreve
ENCODING 276
SWIDTH 667 0
DWIDTH 12 0
BBX 12 17 0 0
BITMAP
0880
0D80
0700
0000
3FF0
1C70
1C20
1C20
3880
3980
3F80
3980
3100
7020
7060
70E0
FFC0
ENDCHAR
STARTCHAR ebreve
ENCODING 277
SWIDTH 444 0
DWIDTH 9 0
BBX 8 13 0 0
BITMAP
22
36
1C
00
1E
77
67
E7
EE
F8
E3
F6
7C
ENDCHAR
STARTCHAR Edotaccent
ENCODING 278
SWIDTH 667 0
DWIDTH 12 0
BBX 12 16 0 0
BITMAP
0300
0300
0000
3FF0
1C70
1C20
1C20
3880
3980
3F80
3980
3100
7020
7060
70E0
FFC0
ENDCHAR
STARTCHAR edotaccent
ENCODING 279
SWIDTH 444 0
DWIDTH 9 0
BBX 8 12 0 0
BITMAP
18
18
00
1E
77
67
E7
EE
F8
E3
F6
7C
ENDCHAR
STARTCHAR Eogonek
ENCODING 280
SWIDTH 667 0
DWIDTH 12 0
BBX 12 17 0 -4
BITMAP
3FF0
1C70
1C20
1C20
3880
3980
3F80
3980
3100
7020
7060
70E0
FFC0
0600
0C00
0F80
0600
ENDCHAR
STARTCHAR eogonek
ENCODING 281
SWIDTH 444 0
DWIDTH 9 0
BBX 8 13 0 -4
BITMAP
1E
77
67
E7
EE
F8
E3
F6
7C
18
30
3E
18
ENDCHAR
STARTCHAR Ecaron
ENCODING 282
SWIDTH 667 0
DWIDTH 12 0
BBX 12 17 0 0
BITMAP
0CC0
0780
0300
0000
3FF0
1C70
1C20
1C20
3880
3980
3F80
3980
3100
7020
7060
70E0
FFC0
ENDCHAR
STARTCHAR ecaron
ENCODING 283
SWIDTH 444 0
DWIDTH 9 0
BBX 8 13 0 0
BITMAP
66
3C
18
00
1E
77
67
E7
EE
F8
E3
F6
7C
ENDCHAR
STARTCHAR Gcircumflex
ENCODING 284
SWIDTH 722 0
DWIDTH 14 0
BBX 12 17 1 0
BITMAP
0300
0780
0CC0
0000
07D0
1E70
3830
7030
7000
6000
E000
E1F0
E0E0
F0E0
70C0
7DC0
1FC0
ENDCHAR
STARTCHAR gcircumflex
ENCODING 285
SWIDTH 500 0
DWIDTH 8 0
BBX 10 17 -1 -4
BITMAP
0C00
1E00
3300
0000
1F40
3B80
7180
6180
6380
7700
3E00
7000
3E00
6F80
C380
C300
7E00
ENDCHAR
STARTCHAR Gbreve
ENCODING 286
SWIDTH 722 0
DWIDTH 14 0
BBX 12 17 1 0
BITMAP
0880
0D80
0700
0000
07D0
1E70
3830
7030
7000
6000
E000
E1F0
E0E0
F0E0
70C0
7DC0
1FC0
ENDCHAR
STARTCHAR gbreve
ENCODING 287
SWIDTH 500 0
DWIDTH 8 0
BBX 10 17 -1 -4
BITMAP
1100
1B00
0E00
0000
1F40
3B80
7180
6180
6380
7700
3E00
7000
3E00
6F80
C380
C300
7E00
ENDCHAR
STARTCHAR Gdotaccent
ENCODING 288
SWIDTH 722 0
DWIDTH 14 0
BBX 12 16 1 0
BITMAP
0300
0300
0000
07D0
1E70
3830
7030
7000
6000
E000
E1F0
E0E0
F0E0
70C0
7DC0
1FC0
ENDCHAR
STARTCHAR gdotaccent
ENCODING 289
SWIDTH 500 0
DWIDTH 8 0
BBX 10 16 -1 -4
BITMAP
0C00
0C00
0000
1F40
3B80
7180
6180
6380
7700
3E00
7000
3E00
6F80
C380
C300
7E00
ENDCHAR
STARTCHAR Gcommaaccent
ENCODING 290
SWIDTH 722 0
DWIDTH 14 0
BBX 12 18 1 -5
BITMAP
07D0
1E70
3830
7030
7000
6000
E000
E1F0
E0E0
F0E0
70C0
7DC0
1FC0
0000
0600
0600
0200
0C00
ENDCHAR
STARTCHAR gcommaaccent
ENCODING 291
SWIDTH 500 0
DWIDTH 8 0
BBX 10 19 -1 -4
BITMAP
0200
0400
0C00
0E00
0E00
0000
1F40
3B80
7180
6180
6380
7700
3E00
7000
3E00
6F80
C380
C300
7E00
ENDCHAR
STARTCHAR Hcircumflex
ENCODING 292
SWIDTH 778 0
DWIDTH 15 0
BBX 15 17 0 0
BITMAP
0180
03C0
0660
0000
3E3E
1C1C
1C1C
1C1C
3838
3838
3FF8
3838
3838
7070
7070
7070
F8F8
ENDCHAR
STARTCHAR hcircumflex
ENCODING 293
SWIDTH 556 0
DWIDTH 11 0
BBX 10 18 1 0
BITMAP
1800
3C00
6600
0000
7800
3800
3800
3000
7000
7700
7F80
7380
7380
6380
E700
E700
E740
E380
ENDCHAR
STARTCHAR Hbar
ENCODING 294
SWIDTH 778 0
DWIDTH 15 0
BBX 15 13 0 0
BITMAP
3E3E
1C1C
1C1C
FFFE
3838
3838
3FF8
3838
3838
7070
7070
7070
F8F8
ENDCHAR
STARTCHAR hbar
ENCODING 295
SWIDTH 556 0
DWIDTH 11 0
BBX 10 14 1 0
BITMAP
7800
3800
3800
FE00
7000
7700
7F80
7380
7380
6380
E700
E700
E740
E380
ENDCHAR
STARTCHAR Itilde
ENCODING 296
SWIDTH 389 0
DWIDTH 7 0
BBX 7 17 0 0
BITMAP
32
7E
4C
00
3E
1C
1C
1C
38
38
38
38
70
70
70
70
F8
ENDCHAR
STARTCHAR itilde
ENCODING 297
SWIDTH 278 0
DWIDTH 5 0
BBX 6 12 -1 0
BITMAP
64
FC
98
00
78
38
38
30
30
70
74
38
ENDCHAR
STARTCHAR Imacron
ENCODING 298
SWIDTH 389 0
DWIDTH 7 0
BBX 7 15 0 0
BITMAP
3E
00
3E
1C
1C
1C
38
38
38
38
70
70
70
70
F8
ENDCHAR
STARTCHAR imacron
ENCODING 299
SWIDTH 278 0
DWIDTH 5 0
BBX 5 10 0 0
BITMAP
F8
00
F0
70
70
60
60
E0
E8
70
ENDCHAR
STARTCHAR Ibreve
ENCODING 300
SWIDTH 389 0
DWIDTH 7 0
BBX 7 17 0 0
BITMAP
22
36
1C
00
3E
1C
1C
1C
38
38
38
38
70
70
70
70
F8
ENDCHAR
STARTCHAR ibreve
ENCODING 301
SWIDTH 278 0
DWIDTH 5 0
BBX 5 12 0 0
BITMAP
88
D8
70
00
F0
70
70
60
60
E0
E8
70
ENDCHAR
STARTCHAR Iogonek
ENCODING 302
SWIDTH 389 0
DWIDTH 7 0
BBX 7 17 0 -4
BITMAP
3E
1C
1C
1C
38
38
38
38
70
70
70
70
F8
30
60
7C
30
ENDCHAR
STARTCHAR iogonek
ENCODING 303
SWIDTH 278 0
DWIDTH 5 0
BBX 5 18 0 -4
BITMAP
30
30
30
00
00
F0
70
70
60
60
E0
E0
E8
70
60
C0
F8
60
ENDCHAR
STARTCHAR Idotaccent
ENCODING 304
SWIDTH 389 0
DWIDTH 7 0
BBX 7 16 0 0
BITMAP
18
18
00
3E
1C
1C
1C
38
38
38
38
70
70
70
70
F8
ENDCHAR
STARTCHAR dotlessi
ENCODING 305
SWIDTH 278 0
DWIDTH 5 0
BBX 5 8 0 0
BITMAP
F0
70
70
60
60
E0
E8
70
ENDCHAR
STARTCHAR IJ
ENCODING 306
SWIDTH 870 0
DWIDTH 16 0
BBX 16 14 0 -1
BITMAP
3E1F
1C0E
1C0E
1C0C
381C
381C
381C
3818
7038
7038
7038
73B0
FBF0
01C0
ENDCHAR
STARTCHAR ij
ENCODING 307
SWIDTH 542 0
DWIDTH 9 0
BBX 9 18 0 -4
BITMAP
3180
3180
3180
0000
0000
F780
7380
7380
6380
6300
E700
E700
EF00
7600
0600
3600
3C00
1800
ENDCHAR
STARTCHAR Jcircumflex
ENCODING 308
SWIDTH 500 0
DWIDTH 9 0
BBX 10 18 -1 -1
BITMAP
0300
0780
0CC0
0000
07C0
0380
0380
0300
0700
0700
0700
0600
0E00
0E00
0E00
EC00
FC00
7000
ENDCHAR
STARTCHAR jcircumflex
ENCODING 309
SWIDTH 278 0
DWIDTH 4 0
BBX 8 17 -3 -4
BITMAP
0C
1E
33
00
1E
0E
0E
0E
0C
1C
1C
1C
18
18
D8
F0
60
ENDCHAR
STARTCHAR Kcommaaccent
ENCODING 310
SWIDTH 667 0
DWIDTH 12 0
BBX 14 18 -1 -5
BITMAP
3E7C
1C30
1C60
1CC0
3980
3F00
3F00
3B80
3B80
71C0
71C0
70E0
F9F0
0000
0600
0600
0200
0C00
ENDCHAR
STARTCHAR kcommaaccent
ENCODING 311
SWIDTH 500 0
DWIDTH 9 0
BBX 10 19 -1 -5
BITMAP
3C00
1C00
1C00
1800
3800
3BC0
3380
3600
7C00
7C00
7400
7600
E780
E700
0000
0C00
0C00
0400
1800
ENDCHAR
STARTCHAR kgreenlandic
ENCODING 312
SWIDTH 500 0
DWIDTH 9 0
BBX 10 9 -1 0
BITMAP
3BC0
3380
3600
7C00
7C00
7400
7600
E780
E700
ENDCHAR
STARTCHAR Lacute
ENCODING 313
SWIDTH 611 0
DWIDTH 11 0
BBX 11 17 0 0
BITMAP
0700
0E00
1800
0000
3E00
1C00
1C00
1C00
3800
3800
3800
3800
3000
7060
7060
71C0
FFC0
ENDCHAR
STARTCHAR lacute
ENCODING 314
SWIDTH 278 0
DWIDTH 5 0
BBX 7 18 0 0
BITMAP
0E
1C
30
00
78
38
38
30
70
70
70
70
60
E0
E0
E0
E8
70
ENDCHAR
STARTCHAR Lcommaaccent
ENCODING 315
SWIDTH 611 0
DWIDTH 11 0
BBX 11 18 0 -5
BITMAP
3E00
1C00
1C00
1C00
3800
3800
3800
3800
3000
7060
7060
71C0
FFC0
0000
0600
0600
0200
0C00
ENDCHAR
STARTCHAR lcommaaccent
ENCODING 316
SWIDTH 278 0
DWIDTH 5 0
BBX 5 19 0 -5
BITMAP
78
38
38
30
70
70
70
70
60
E0
E0
E0
E8
70
00
60
60
20
C0
ENDCHAR
STARTCHAR Lcaron
ENCODING 317
SWIDTH 913 0
DWIDTH 15 0
BBX 15 13 0 0
BITMAP
3E0E
1C0E
1C06
1C04
3808
3800
3800
3800
3000
7060
7060
71C0
FFC0
ENDCHAR
STARTCHAR lcaron
ENCODING 318
SWIDTH 597 0
DWIDTH 10 0
BBX 10 14 0 0
BITMAP
7800
39C0
39C0
30C0
7080
7100
7000
7000
6000
E000
E000
E000
E800
7000
ENDCHAR
STARTCHAR Ldot
ENCODING 319
SWIDTH 830 0
DWIDTH 15 0
BBX 14 13 0 0
BITMAP
3E00
1C00
1C00
1C00
3800
3800
3800
381C
301C
7060
7060
71C0
FFC0
ENDCHAR
STARTCHAR ldot
ENCODING 320
SWIDTH 514 0
DWIDTH 10 0
BBX 9 14 0 0
BITMAP
7800
3800
3800
3000
7000
7000
7000
7000
6380
E380
E000
E000
E800
7000
ENDCHAR
STARTCHAR Lslash
ENCODING 321
SWIDTH 611 0
DWIDTH 11 0
BBX 11 13 0 0
BITMAP
3E00
1C00
1C00
1800
3A00
3C00
3800
7800
F000
7060
7060
71C0
FFC0
ENDCHAR
STARTCHAR lslash
ENCODING 322
SWIDTH 278 0
DWIDTH 6 0
BBX 7 13 0 0
BITMAP
3C
1C
1C
18
3A
3C
78
F8
30
70
70
74
38
ENDCHAR
STARTCHAR Nacute
ENCODING 323
SWIDTH 722 0
DWIDTH 13 0
BBX 15 17 -1 0
BITMAP
00E0
01C0
0300
0000
3C1E
1C0C
1E0C
1E0C
1B18
3398
3398
31D8
31D0
60F0
60F0
6060
F060
ENDCHAR
STARTCHAR nacute
ENCODING 324
SWIDTH 556 0
DWIDTH 10 0
BBX 10 13 0 0
BITMAP
0700
0E00
1800
0000
F700
7B80
7380
7380
7380
6300
E700
E740
E380
ENDCHAR
STARTCHAR Ncommaaccent
ENCODING 325
SWIDTH 722 0
DWIDTH 13 0
BBX 15 18 -1 -5
BITMAP
3C1E
1C0C
1E0C
1E0C
1B18
3398
3398
31D8
31D0
60F0
60F0
6060
F060
0000
0300
0300
0100
0600
ENDCHAR
STARTCHAR ncommaaccent
ENCODING 326
SWIDTH 556 0
DWIDTH 10 0
BBX 10 14 0 -5
BITMAP
F700
7B80
7380
7380
7380
6300
E700
E740
E380
0000
0C00
0C00
0400
1800
ENDCHAR
STARTCHAR Ncaron
ENCODING 327
SWIDTH 722 0
DWIDTH 13 0
BBX 15 17 -1 0
BITMAP
0660
03C0
0180
0000
3C1E
1C0C
1E0C
1E0C
1B18
3398
3398
31D8
31D0
60F0
60F0
6060
F060
ENDCHAR
STARTCHAR ncaron
ENCODING 328
SWIDTH 556 0
DWIDTH 10 0
BBX 10 13 0 0
BITMAP
3300
1E00
0C00
0000
F700
7B80
7380
7380
7380
6300
E700
E740
E380
ENDCHAR
STARTCHAR napostrophe
ENCODING 329
SWIDTH 872 0
DWIDTH 15 0
BBX 13 13 2 0
BITMAP
E000
E000
6000
4000
9EE0
0F70
0E70
0E70
0E70
0C60
1CE0
1CE8
1C70
ENDCHAR
STARTCHAR Eng
ENCODING 330
SWIDTH 722 0
DWIDTH 13 0
BBX 15 17 -1 -4
BITMAP
3C1E
1C0C
1E0C
1E0C
1B18
3398
3398
31D8
31D0
60F0
60F0
6070
F060
0060
0360
03C0
0180
ENDCHAR
STARTCHAR eng
ENCODING 331
SWIDTH 556 0
DWIDTH 10 0
BBX 9 13 0 -4
BITMAP
F700
7B80
7380
7380
7380
6700
E700
E700
E600
0600
3600
3C00
1800
ENDCHAR
STARTCHAR Omacron
ENCODING 332
SWIDTH 722 0
DWIDTH 14 0
BBX 12 15 1 0
BITMAP
0F80
0000
07C0
1EE0
3870
7070
7070
E070
E070
E070
E0E0
E0E0
E1C0
7780
3E00
ENDCHAR
STARTCHAR omacron
ENCODING 333
SWIDTH 500 0
DWIDTH 10 0
BBX 9 11 0 0
BITMAP
1F00
0000
1F00
7380
6380
E380
E380
E380
E300
E700
7C00
ENDCHAR
STARTCHAR Obreve
ENCODING 334
SWIDTH 722 0
DWIDTH 14 0
BBX 12 17 1 0
BITMAP
0880
0D80
0700
0000
07C0
1EE0
3870
7070
7070
E070
E070
E070
E0E0
E0E0
E1C0
7780
3E00
ENDCHAR
STARTCHAR obreve
ENCODING 335
SWIDTH 500 0
DWIDTH 10 0
BBX 9 13 0 0
BITMAP
1100
1B00
0E00
0000
1F00
7380
6380
E380
E380
E380
E300
E700
7C00
ENDCHAR
STARTCHAR Ohungarumlaut
ENCODING 336
SWIDTH 722 0
DWIDTH 14 0
BBX 12 17 1 0
BITMAP
0EE0
0CC0
1980
0000
07C0
1EE0
3870
7070
7070
E070
E070
E070
E0E0
E0E0
E1C0
7780
3E00
ENDCHAR
STARTCHAR ohungarumlaut
ENCODING 337
SWIDTH 500 0
DWIDTH 10 0
BBX 10 13 0 0
BITMAP
1DC0
1980
3300
0000
1F00
7380
6380
E380
E380
E380
E300
E700
7C00
ENDCHAR
STARTCHAR OE
ENCODING 338
SWIDTH 944 0
DWIDTH 18 0
BBX 18 13 0 0
BITMAP
07FFC0
1E71C0
387080
707080
706200
E0E600
E0FE00
E0E600
E0C400
E1C080
71C180
73C380
1FFF00
ENDCHAR
STARTCHAR oe
ENCODING 339
SWIDTH 722 0
DWIDTH 14 0
BBX 13 8 0 0
BITMAP
1EF0
73B8
6338
E370
E3C0
E318
E7B0
7DE0
ENDCHAR
STARTCHAR Racute
ENCODING 340
SWIDTH 667 0
DWIDTH 12 0
BBX 12 17 0 0
BITMAP
01C0
0380
0600
0000
3FE0
1CF0
1C70
1C70
3870
38E0
3FC0
3F80
3B80
71C0
71C0
70E0
F8F0
ENDCHAR
STARTCHAR racute
ENCODING 341
SWIDTH 389 0
DWIDTH 6 0
BBX 7 13 0 0
BITMAP
0E
1C
30
00
EE
7E
70
70
70
60
E0
E0
E0
ENDCHAR
STARTCHAR Rcommaaccent
ENCODING 342
SWIDTH 667 0
DWIDTH 12 0
BBX 12 18 0 -5
BITMAP
3FE0
1CF0
1C70
1C70
3870
38E0
3FC0
3F80
3B80
71C0
71C0
70E0
F8F0
0000
0600
0600
0200
0C00
ENDCHAR
STARTCHAR rcommaaccent
ENCODING 343
SWIDTH 389 0
DWIDTH 6 0
BBX 7 14 0 -5
BITMAP
EE
7E
70
70
70
60
E0
E0
E0
00
60
60
20
C0
ENDCHAR
STARTCHAR Rcaron
ENCODING 344
SWIDTH 667 0
DWIDTH 12 0
BBX 12 17 0 0
BITMAP
0CC0
0780
0300
0000
3FE0
1CF0
1C70
1C70
3870
38E0
3FC0
3F80
3B80
71C0
71C0
70E0
F8F0
ENDCHAR
STARTCHAR rcaron
ENCODING 345
SWIDTH 389 0
DWIDTH 6 0
BBX 7 13 0 0
BITMAP
66
3C
18
00
EE
7E
70
70
70
60
E0
E0
E0
ENDCHAR
STARTCHAR Sacute
ENCODING 346
SWIDTH 556 0
DWIDTH 11 0
BBX 10 17 0 0
BITMAP
0380
0700
0C00
0000
0F40
1DC0
38C0
38C0
3C00
1E00
0F00
0F80
0780
C380
C380
E700
FE00
ENDCHAR
STARTCHAR sacute
ENCODING 347
SWIDTH 389 0
DWIDTH 7 0
BBX 8 13 -1 0
BITMAP
07
0E
18
00
3E
77
72
38
1C
1C
4E
EE
7C
ENDCHAR
STARTCHAR Scircumflex
ENCODING 348
SWIDTH 556 0
DWIDTH 11 0
BBX 10 17 0 0
BITMAP
0600
0F00
1980
0000
0F40
1DC0
38C0
38C0
3C00
1E00
0F00
0F80
0780
C380
C380
E700
FE00
ENDCHAR
STARTCHAR scircumflex
ENCODING 349
SWIDTH 389 0
DWIDTH 7 0
BBX 8 13 -1 0
BITMAP
18
3C
66
00
3E
77
72
38
1C
1C
4E
EE
7C
ENDCHAR
STARTCHAR Scedilla
ENCODING 350
SWIDTH 556 0
DWIDTH 11 0
BBX 10 17 0 -4
BITMAP
0F40
1DC0
38C0
38C0
3C00
1E00
0F00
0F80
0780
C380
C380
E700
FE00
1800
1C00
4C00
3800
ENDCHAR
STARTCHAR scedilla
ENCODING 351
SWIDTH 389 0
DWIDTH 7 0
BBX 8 13 -1 -4
BITMAP
3E
77
72
38
1C
1C
4E
EE
7C
18
1C
4C
38
ENDCHAR
STARTCHAR Scaron
ENCODING 352
SWIDTH 556 0
DWIDTH 11 0
BBX 10 13 0 0
BITMAP
0CC0
0780
0300
0F00
1DC0
38C0
38C0
1E00
0F00
C780
C380
E700
FE00
ENDCHAR
STARTCHAR scaron
ENCODING 353
SWIDTH 389 0
DWIDTH 7 0
BBX 8 11 -1 0
BITMAP
33
1E
0C
3E
77
72
38
1C
4E
EE
7C
ENDCHAR
STARTCHAR Tcommaaccent
ENCODING 354
SWIDTH 611 0
DWIDTH 11 0
BBX 11 17 1 -4
BITMAP
FFE0
CE60
8E20
0E00
1C00
1C00
1C00
1C00
1800
3800
3800
3800
7C00
1800
1C00
4C00
3800
ENDCHAR
STARTCHAR tcommaaccent
ENCODING 355
SWIDTH 278 0
DWIDTH 6 0
BBX 7 15 -1 -4
BITMAP
18
38
7E
38
38
38
30
70
70
74
38
30
38
98
70
ENDCHAR
STARTCHAR Tcaron
ENCODING 356
SWIDTH 611 0
DWIDTH 11 0
BBX 11 17 1 0
BITMAP
1980
0F00
0600
0000
FFE0
CE60
8E20
0E00
1C00
1C00
1C00
1C00
1800
3800
3800
3800
7C00
ENDCHAR
STARTCHAR tcaron
ENCODING 357
SWIDTH 597 0
DWIDTH 11 0
BBX 11 13 0 0
BITMAP
00E0
00E0
3060
7040
FC80
7000
7000
7000
6000
E000
E000
E800
7000
ENDCHAR
STARTCHAR Tbar
ENCODING 358
SWIDTH 611 0
DWIDTH 11 0
BBX 11 13 1 0
BITMAP
FFE0
CE60
8E20
0E00
1C00
1C00
3F80
1C00
1800
3800
3800
3800
7C00
ENDCHAR
STARTCHAR tbar
ENCODING 359
SWIDTH 278 0
DWIDTH 6 0
BBX 7 11 0 0
BITMAP
30
70
FC
70
70
FE
60
E0
E0
E8
70
ENDCHAR
STARTCHAR Utilde
ENCODING 360
SWIDTH 722 0
DWIDTH 14 0
BBX 14 17 1 0
BITMAP
0640
0FC0
0980
0000
7E7C
3838
3830
7830
7060
7060
7060
F060
E0C0
E0C0
E0C0
F180
7F00
ENDCHAR
STARTCHAR utilde
ENCODING 361
SWIDTH 556 0
DWIDTH 10 0
BBX 10 13 0 0
BITMAP
1900
3F00
2600
0000
F380
7380
7380
6300
6700
E700
EF00
FB40
7380
ENDCHAR
STARTCHAR Umacron
ENCODING 362
SWIDTH 722 0
DWIDTH 14 0
BBX 14 15 1 0
BITMAP
0F80
0000
7E7C
3838
3830
7830
7060
7060
7060
F060
E0C0
E0C0
E0C0
F180
7F00
ENDCHAR
STARTCHAR umacron
ENCODING 363
SWIDTH 556 0
DWIDTH 10 0
BBX 10 11 0 0
BITMAP
3E00
0000
F380
7380
7380
6300
6700
E700
EF00
FB40
7380
ENDCHAR
STARTCHAR Ubreve
ENCODING 364
SWIDTH 722 0
DWIDTH 14 0
BBX 14 17 1 0
BITMAP
0880
0D80
0700
0000
7E7C
3838
3830
7830
7060
7060
7060
F060
E0C0
E0C0
E0C0
F180
7F00
ENDCHAR
STARTCHAR ubreve
ENCODING 365
SWIDTH 556 0
DWIDTH 10 0
BBX 10 13 0 0
BITMAP
2200
3600
1C00
0000
F380
7380
7380
6300
6700
E700
EF00
FB40
7380
ENDCHAR
STARTCHAR Uring
ENCODING 366
SWIDTH 722 0
DWIDTH 14 0
BBX 14 18 1 0
BITMAP
0700
0D80
0D80
0700
0000
7E7C
3838
3830
7830
7060
7060
7060
F060
E0C0
E0C0
E0C0
F180
7F00
ENDCHAR
STARTCHAR uring
ENCODING 367
SWIDTH 556 0
DWIDTH 10 0
BBX 10 14 0 0
BITMAP
1C00
3600
3600
1C00
0000
F380
7380
7380
6300
6700
E700
EF00
FB40
7380
ENDCHAR
STARTCHAR Uhungarumlaut
ENCODING 368
SWIDTH 722 0
DWIDTH 14 0
BBX 14 17 1 0
BITMAP
0770
0660
0CC0
0000
7E7C
3838
3830
7830
7060
7060
7060
F060
E0C0
E0C0
E0C0
F180
7F00
ENDCHAR
STARTCHAR uhungarumlaut
ENCODING 369
SWIDTH 556 0
DWIDTH 10 0
BBX 10 13 0 0
BITMAP
1DC0
1980
3300
0000
F380
7380
7380
6300
6700
E700
EF00
FB40
7380
ENDCHAR
STARTCHAR Uogonek
ENCODING 370
SWIDTH 722 0
DWIDTH 14 0
BBX 14 17 1 -4
BITMAP
7E7C
3838
3830
7830
7060
7060
7060
F060
E0C0
E0C0
E0C0
F180
7F00
0C00
1800
1F00
0C00
ENDCHAR
STARTCHAR uogonek
ENCODING 371
SWIDTH 556 0
DWIDTH 10 0
BBX 10 13 0 -4
BITMAP
F380
7380
7380
6300
6700
E700
EF00
FB40
7380
0C00
1800
1F00
0C00
ENDCHAR
STARTCHAR Wcircumflex
ENCODING 372
SWIDTH 889 0
DWIDTH 17 0
BBX 17 17 1 0
BITMAP
018000
03C000
066000
000000
F3E780
71C300
71C600
71C400
71CC00
73C800
73D800
75D000
3CF000
38E000
38E000
30C000
30C000
ENDCHAR
STARTCHAR wcircumflex
ENCODING 373
SWIDTH 667 0
DWIDTH 11 0
BBX 12 13 -1 0
BITMAP
0600
0F00
1980
0000
E330
6330
6330
77A0
77A0
35A0
3DC0
3980
1080
ENDCHAR
STARTCHAR Ycircumflex
ENCODING 374
SWIDTH 611 0
DWIDTH 11 0
BBX 12 17 0 0
BITMAP
0600
0F00
1980
0000
F8F0
7060
70C0
3980
3B00
1E00
1C00
1C00
1C00
3800
3800
3800
FE00
ENDCHAR
STARTCHAR ycircumflex
ENCODING 375
SWIDTH 444 0
DWIDTH 7 0
BBX 9 17 -2 -4
BITMAP
0C00
1E00
3300
0000
7B80
3980
3980
3980
1900
1B00
1E00
0E00
0C00
0C00
C800
D800
7000
ENDCHAR
STARTCHAR Ydieresis
ENCODING 376
SWIDTH 611 0
DWIDTH 11 0
BBX 12 13 0 0
BITMAP
1980
1980
0000
F8F0
7060
70C0
3980
3B00
1E00
1C00
3800
3800
FE00
ENDCHAR
STARTCHAR Zacute
ENCODING 377
SWIDTH 611 0
DWIDTH 11 0
BBX 13 17 -1 0
BITMAP
00E0
01C0
0300
0000
1FF8
38F0
20E0
01C0
0380
0700
0F00
0E00
1C00
3820
7060
F0E0
FFC0
ENDCHAR
STARTCHAR zacute
ENCODING 378
SWIDTH 389 0
DWIDTH 7 0
BBX 7 14 0 -1
BITMAP
0E
1C
30
00
3E
7E
4C
18
18
30
60
E6
F6
1C
ENDCHAR
STARTCHAR Zdotaccent
ENCODING 379
SWIDTH 611 0
DWIDTH 11 0
BBX 13 16 -1 0
BITMAP
0300
0300
0000
1FF8
38F0
20E0
01C0
0380
0700
0F00
0E00
1C00
3820
7060
F0E0
FFC0
ENDCHAR
STARTCHAR zdotaccent
ENCODING 380
SWIDTH 389 0
DWIDTH 7 0
BBX 7 13 0 -1
BITMAP
18
18
00
3E
7E
4C
18
18
30
60
E6
F6
1C
ENDCHAR
STARTCHAR Zcaron
ENCODING 381
SWIDTH 611 0
DWIDTH 11 0
BBX 12 13 -1 0
BITMAP
0660
03C0
0180
1FF0
38E0
21C0
0380
0700
0E00
1C20
3860
70E0
FFC0
ENDCHAR
STARTCHAR zcaron
ENCODING 382
SWIDTH 389 0
DWIDTH 7 0
BBX 8 12 0 -1
BITMAP
33
1E
0C
3E
7E
4C
18
30
60
E6
F6
1C
ENDCHAR
STARTCHAR uni0186
ENCODING 390
SWIDTH 667 0
DWIDTH 13 0
BBX 12 13 1 0
BITMAP
0F80
3BE0
60E0
00F0
0070
0070
0070
0060
00E0
C0E0
C1C0
E780
BE00
ENDCHAR
STARTCHAR uni0189
ENCODING 393
SWIDTH 722 0
DWIDTH 14 0
BBX 13 13 0 0
BITMAP
3F80
1DE0
1C70
1C70
3838
FF38
FF38
3838
7070
70F0
70E0
73C0
FF00
ENDCHAR
STARTCHAR uni018E
ENCODING 398
SWIDTH 667 0
DWIDTH 12 0
BBX 12 13 0 0
BITMAP
3FF0
70E0
60E0
40E0
08C0
19C0
1FC0
19C0
11C0
4380
4380
E380
FFC0
ENDCHAR
STARTCHAR florin
ENCODING 402
SWIDTH 500 0
DWIDTH 9 0
BBX 9 17 -1 -4
BITMAP
0380
0680
0600
0600
0E00
3F80
0E00
0E00
0C00
0C00
1C00
1C00
1800
1800
D800
D800
7000
ENDCHAR
STARTCHAR uni0197
ENCODING 407
SWIDTH 389 0
DWIDTH 7 0
BBX 7 13 0 0
BITMAP
3E
1C
1C
1C
38
38
FE
38
70
70
70
70
F8
ENDCHAR
STARTCHAR uni019A
ENCODING 410
SWIDTH 278 0
DWIDTH 5 0
BBX 7 14 -1 0
BITMAP
3C
1C
1C
18
38
38
FE
38
30
70
70
70
74
38
ENDCHAR
STARTCHAR uni019D
ENCODING 413
SWIDTH 722 0
DWIDTH 13 0
BBX 17 17 -3 -4
BITMAP
0F0780
070300
078300
078300
06C600
0CE600
0CE600
0C7600
0C7400
1C3C00
1C3C00
1C1800
181800
180000
D80000
F00000
600000
ENDCHAR
STARTCHAR uni019F
ENCODING 415
SWIDTH 722 0
DWIDTH 14 0
BBX 12 13 1 0
BITMAP
07C0
1EE0
3870
7070
7070
E070
FFF0
E070
E0E0
E0E0
E1C0
7780
3E00
ENDCHAR
STARTCHAR Ohorn
ENCODING 416
SWIDTH 722 0
DWIDTH 14 0
BBX 14 13 1 0
BITMAP
07DC
1EFC
387C
7078
7070
E070
E070
E070
E0E0
E0E0
E1C0
7780
3E00
ENDCHAR
STARTCHAR ohorn
ENCODING 417
SWIDTH 500 0
DWIDTH 10 0
BBX 11 9 0 0
BITMAP
1FE0
73E0
63E0
E3C0
E380
E380
E300
E700
7C00
ENDCHAR
STARTCHAR Uhorn
ENCODING 431
SWIDTH 722 0
DWIDTH 14 0
BBX 16 13 1 0
BITMAP
7E7F
383F
3833
7832
7064
7060
7060
F060
E0C0
E0C0
E0C0
F180
7F00
ENDCHAR
STARTCHAR uhorn
ENCODING 432
SWIDTH 556 0
DWIDTH 10 0
BBX 12 9 0 0
BITMAP
F3F0
73F0
73B0
6320
6740
E700
EF00
FB40
7380
ENDCHAR
STARTCHAR uni01B5
ENCODING 437
SWIDTH 611 0
DWIDTH 11 0
BBX 13 13 -1 0
BITMAP
1FF8
38F0
20E0
01C0
0380
0700
1FC0
0E00
1C00
3820
7060
F0E0
FFC0
ENDCHAR
STARTCHAR uni01B6
ENCODING 438
SWIDTH 389 0
DWIDTH 7 0
BBX 7 10 0 -1
BITMAP
3E
7E
4C
18
FE
30
60
E6
F6
1C
ENDCHAR
STARTCHAR uni01BB
ENCODING 443
SWIDTH 500 0
DWIDTH 9 0
BBX 9 13 -1 0
BITMAP
1F00
3F80
2780
0380
0380
0700
FF80
0C00
1800
3100
7F00
FF00
FE00
ENDCHAR
STARTCHAR uni01BC
ENCODING 444
SWIDTH 500 0
DWIDTH 9 0
BBX 8 13 0 0
BITMAP
1F
3F
3E
60
60
7C
0E
0F
07
07
CE
DC
78
ENDCHAR
STARTCHAR uni01C0
ENCODING 448
SWIDTH 220 0
DWIDTH 6 0
BBX 2 17 2 -3
BITMAP
C0
C0
C0
C0
C0
C0
C0
C0
C0
C0
C0
C0
C0
C0
C0
C0
C0
ENDCHAR
STARTCHAR uni01C2
ENCODING 450
SWIDTH 570 0
DWIDTH 11 0
BBX 8 17 1 -4
BITMAP
18
18
18
18
18
18
FF
FF
18
FF
FF
18
18
18
18
18
18
ENDCHAR
STARTCHAR uni01C3
ENCODING 451
SWIDTH 389 0
DWIDTH 7 0
BBX 6 13 1 0
BITMAP
1C
1C
18
38
38
30
70
60
40
00
00
C0
C0
ENDCHAR
STARTCHAR uni01CD
ENCODING 461
SWIDTH 667 0
DWIDTH 13 0
BBX 14 17 -1 0
BITMAP
0660
03C0
0180
0000
00C0
01C0
01C0
03E0
02E0
0660
0C70
0C70
1FF0
1870
3038
7038
F87C
ENDCHAR
STARTCHAR uni01CE
ENCODING 462
SWIDTH 500 0
DWIDTH 10 0
BBX 10 13 0 0
BITMAP
3300
1E00
0C00
0000
1E80
7B80
7380
E380
E300
E700
E700
6F40
3B80
ENDCHAR
STARTCHAR uni01CF
ENCODING 463
SWIDTH 389 0
DWIDTH 7 0
BBX 7 17 0 0
BITMAP
66
3C
18
00
3E
1C
1C
1C
38
38
38
38
70
70
70
70
F8
ENDCHAR
STARTCHAR uni01D0
ENCODING 464
SWIDTH 278 0
DWIDTH 5 0
BBX 6 12 -1 0
BITMAP
CC
78
30
00
78
38
38
30
30
70
74
38
ENDCHAR
STARTCHAR uni01D1
ENCODING 465
SWIDTH 722 0
DWIDTH 14 0
BBX 12 17 1 0
BITMAP
0CC0
0780
0300
0000
07C0
1EE0
3870
7070
7070
E070
E070
E070
E0E0
E0E0
E1C0
7780
3E00
ENDCHAR
STARTCHAR uni01D2
ENCODING 466
SWIDTH 500 0
DWIDTH 10 0
BBX 9 13 0 0
BITMAP
3300
1E00
0C00
0000
1F00
7380
6380
E380
E380
E380
E300
E700
7C00
ENDCHAR
STARTCHAR uni01D3
ENCODING 467
SWIDTH 722 0
DWIDTH 14 0
BBX 14 17 1 0
BITMAP
0CC0
0780
0300
0000
7E7C
3838
3830
7830
7060
7060
7060
F060
E0C0
E0C0
E0C0
F180
7F00
ENDCHAR
STARTCHAR uni01D4
ENCODING 468
SWIDTH 556 0
DWIDTH 10 0
BBX 10 13 0 0
BITMAP
3300
1E00
0C00
0000
F380
7380
7380
6300
6700
E700
EF00
FB40
7380
ENDCHAR
STARTCHAR uni01D5
ENCODING 469
SWIDTH 722 0
DWIDTH 14 0
BBX 14 18 1 0
BITMAP
07C0
0000
0660
0660
0000
7E7C
3838
3830
7830
7060
7060
7060
F060
E0C0
E0C0
E0C0
F180
7F00
ENDCHAR
STARTCHAR uni01D6
ENCODING 470
SWIDTH 556 0
DWIDTH 10 0
BBX 10 14 0 0
BITMAP
3E00
0000
3300
3300
0000
F380
7380
7300
6300
6700
E700
EF00
FB40
7380
ENDCHAR
STARTCHAR uni01D7
ENCODING 471
SWIDTH 722 0
DWIDTH 14 0
BBX 14 20 1 0
BITMAP
00E0
01C0
0300
0000
0660
0660
0000
7E7C
3838
3830
7830
7060
7060
7060
F060
E0C0
E0C0
E0C0
F180
7F00
ENDCHAR
STARTCHAR uni01D8
ENCODING 472
SWIDTH 556 0
DWIDTH 10 0
BBX 10 16 0 0
BITMAP
0700
0E00
1800
0000
3300
3300
0000
F380
7380
7300
6300
6700
E700
EF00
FB40
7380
ENDCHAR
STARTCHAR uni01D9
ENCODING 473
SWIDTH 722 0
DWIDTH 14 0
BBX 14 20 1 0
BITMAP
0CC0
0780
0300
0000
0660
0660
0000
7E7C
3838
3830
7830
7060
7060
7060
F060
E0C0
E0C0
E0C0
F180
7F00
ENDCHAR
STARTCHAR uni01DA
ENCODING 474
SWIDTH 556 0
DWIDTH 10 0
BBX 10 16 0 0
BITMAP
3300
1E00
0C00
0000
3300
3300
0000
F380
7380
7300
6300
6700
E700
EF00
FB40
7380
ENDCHAR
STARTCHAR uni01DB
ENCODING 475
SWIDTH 722 0
DWIDTH 14 0
BBX 14 20 1 0
BITMAP
0E00
0700
0180
0000
0660
0660
0000
7E7C
3838
3830
7830
7060
7060
7060
F060
E0C0
E0C0
E0C0
F180
7F00
ENDCHAR
STARTCHAR uni01DC
ENCODING 476
SWIDTH 556 0
DWIDTH 10 0
BBX 10 16 0 0
BITMAP
7000
3800
0C00
0000
3300
3300
0000
F380
7380
7300
6300
6700
E700
EF00
FB40
7380
ENDCHAR
STARTCHAR uni01DD
ENCODING 477
SWIDTH 444 0
DWIDTH 9 0
BBX 8 9 0 0
BITMAP
3E
6F
C7
1F
77
E7
E6
EE
78
ENDCHAR
STARTCHAR uni01DE
ENCODING 478
SWIDTH 667 0
DWIDTH 13 0
BBX 14 18 -1 0
BITMAP
03E0
0000
0330
0330
0000
00C0
01C0
01C0
03E0
02E0
0660
0C70
0C70
1FF0
1870
3038
7038
F87C
ENDCHAR
STARTCHAR uni01DF
ENCODING 479
SWIDTH 500 0
DWIDTH 10 0
BBX 10 14 0 0
BITMAP
1F00
0000
1980
1980
0000
1E80
7B80
7380
E380
E300
E700
E700
6F40
3B80
ENDCHAR
STARTCHAR uni01E0
ENCODING 480
SWIDTH 667 0
DWIDTH 13 0
BBX 14 18 -1 0
BITMAP
07C0
0000
0180
0180
0000
00C0
01C0
01C0
03E0
02E0
0660
0C70
0C70
1FF0
1870
3038
7038
F87C
ENDCHAR
STARTCHAR uni01E1
ENCODING 481
SWIDTH 500 0
DWIDTH 10 0
BBX 10 14 0 0
BITMAP
1F00
0000
0C00
0C00
0000
1E80
7B80
7380
E380
E300
E700
E700
6F40
3B80
ENDCHAR
STARTCHAR uni01E2
ENCODING 482
SWIDTH 944 0
DWIDTH 18 0
BBX 19 15 -1 0
BITMAP
007C00
000000
01FFE0
00F8E0
01B840
033840
033100
067300
0C7F00
0C7300
1FE200
18E040
30E0C0
70E1C0
F9FF80
ENDCHAR
STARTCHAR uni01E3
ENCODING 483
SWIDTH 722 0
DWIDTH 14 0
BBX 13 11 0 0
BITMAP
0F80
0000
1D70
7BB8
7338
E370
E370
E7C0
E718
6FB0
3BE0
ENDCHAR
STARTCHAR uni01E4
ENCODING 484
SWIDTH 722 0
DWIDTH 14 0
BBX 14 13 1 0
BITMAP
07D0
1E70
3830
7030
7000
6000
E000
E1F0
E0E0
F1FC
70C0
7DC0
1FC0
ENDCHAR
STARTCHAR uni01E5
ENCODING 485
SWIDTH 500 0
DWIDTH 8 0
BBX 10 13 -1 -4
BITMAP
1F40
3B80
7180
6180
6380
7700
3E00
7000
3E00
FFC0
C380
C300
7E00
ENDCHAR
STARTCHAR Gcaron
ENCODING 486
SWIDTH 722 0
DWIDTH 14 0
BBX 12 17 1 0
BITMAP
0CC0
0780
0300
0000
07D0
1E70
3830
7030
7000
6000
E000
E1F0
E0E0
F0E0
70C0
7DC0
1FC0
ENDCHAR
STARTCHAR gcaron
ENCODING 487
SWIDTH 500 0
DWIDTH 8 0
BBX 10 17 -1 -4
BITMAP
3300
1E00
0C00
0000
1F40
3B80
7180
6180
6380
7700
3E00
7000
3E00
6F80
C380
C300
7E00
ENDCHAR
STARTCHAR uni01E8
ENCODING 488
SWIDTH 667 0
DWIDTH 12 0
BBX 14 17 -1 0
BITMAP
0CC0
0780
0300
0000
3E7C
1C30
1C60
1CC0
3980
3F00
3F00
3B80
3B80
71C0
71C0
70E0
F9F0
ENDCHAR
STARTCHAR uni01E9
ENCODING 489
SWIDTH 500 0
DWIDTH 9 0
BBX 10 18 -1 0
BITMAP
3300
1E00
0C00
0000
3C00
1C00
1C00
1800
3800
3BC0
3380
3600
7C00
7C00
7400
7600
E780
E700
ENDCHAR
STARTCHAR uni01EA
ENCODING 490
SWIDTH 722 0
DWIDTH 14 0
BBX 12 17 1 -4
BITMAP
07C0
1EE0
3870
7070
7070
E070
E070
E070
E0E0
E0E0
E1C0
7780
3E00
0600
0C00
0F80
0600
ENDCHAR
STARTCHAR uni01EB
ENCODING 491
SWIDTH 500 0
DWIDTH 10 0
BBX 9 13 0 -4
BITMAP
1F00
7380
6380
E380
E380
E380
E300
E700
7C00
1800
3000
3E00
1800
ENDCHAR
STARTCHAR uni01EC
ENCODING 492
SWIDTH 722 0
DWIDTH 14 0
BBX 12 19 1 -4
BITMAP
0F80
0000
07C0
1EE0
3870
7070
7070
E070
E070
E070
E0E0
E0E0
E1C0
7780
3E00
0600
0C00
0F80
0600
ENDCHAR
STARTCHAR uni01ED
ENCODING 493
SWIDTH 500 0
DWIDTH 10 0
BBX 9 15 0 -4
BITMAP
3E00
0000
1F00
7380
6380
E380
E380
E380
E300
E700
7C00
1800
3000
3E00
1800
ENDCHAR
STARTCHAR uni01F0
ENCODING 496
SWIDTH 278 0
DWIDTH 4 0
BBX 8 17 -3 -4
BITMAP
33
1E
0C
00
1E
0E
0E
0E
0C
1C
1C
1C
18
18
D8
F0
60
ENDCHAR
STARTCHAR uni01F4
ENCODING 500
SWIDTH 722 0
DWIDTH 14 0
BBX 12 17 1 0
BITMAP
01C0
0380
0600
0000
07D0
1E70
3830
7030
7000
6000
E000
E1F0
E0E0
F0E0
70C0
7DC0
1FC0
ENDCHAR
STARTCHAR uni01F5
ENCODING 501
SWIDTH 500 0
DWIDTH 8 0
BBX 10 17 -1 -4
BITMAP
0380
0700
0C00
0000
1F40
3B80
7180
6180
6380
7700
3E00
7000
3E00
6F80
C380
C300
7E00
ENDCHAR
STARTCHAR uni01F8
ENCODING 504
SWIDTH 722 0
DWIDTH 13 0
BBX 15 17 -1 0
BITMAP
0E00
0700
0180
0000
3C1E
1C0C
1E0C
1E0C
1B18
3398
3398
31D8
31D0
60F0
60F0
6060
F060
ENDCHAR
STARTCHAR uni01F9
ENCODING 505
SWIDTH 556 0
DWIDTH 10 0
BBX 10 13 0 0
BITMAP
7000
3800
0C00
0000
F700
7B80
7380
7380
7380
6300
E700
E740
E380
ENDCHAR
STARTCHAR Aringacute
ENCODING 506
SWIDTH 667 0
DWIDTH 13 0
BBX 14 22 -1 0
BITMAP
0070
00E0
0180
0000
00E0
01B0
01B0
00E0
0000
00C0
01C0
01C0
03E0
02E0
0660
0C70
0C70
1FF0
1870
3038
7038
F87C
ENDCHAR
STARTCHAR aringacute
ENCODING 507
SWIDTH 500 0
DWIDTH 10 0
BBX 10 18 0 0
BITMAP
0380
0700
0C00
0000
0E00
1B00
1B00
0E00
0000
1E80
7B80
7380
E380
E300
E700
E700
6F40
3B80
ENDCHAR
STARTCHAR AEacute
ENCODING 508
SWIDTH 944 0
DWIDTH 18 0
BBX 19 17 -1 0
BITMAP
000E00
001C00
003000
000000
01FFE0
00F8E0
01B840
033840
033100
067300
0C7F00
0C7300
1FE200
18E040
30E0C0
70E1C0
F9FF80
ENDCHAR
STARTCHAR aeacute
ENCODING 509
SWIDTH 722 0
DWIDTH 14 0
BBX 13 13 0 0
BITMAP
01C0
0380
0600
0000
1D70
7BB8
7338
E370
E370
E7C0
E718
6FB0
3BE0
ENDCHAR
STARTCHAR Oslashacute
ENCODING 510
SWIDTH 722 0
DWIDTH 14 0
BBX 14 20 0 -2
BITMAP
0070
00E0
0180
0000
000C
03F8
0F70
1C78
38F8
38B8
71B8
7338
7638
7470
7C70
78E0
3BC0
3F00
6000
C000
ENDCHAR
STARTCHAR oslashacute
ENCODING 511
SWIDTH 500 0
DWIDTH 10 0
BBX 9 17 0 -2
BITMAP
0380
0700
0C00
0000
0180
0300
1F00
7780
6580
ED80
C980
DB80
D300
F700
7C00
6000
C000
ENDCHAR
STARTCHAR Scommaaccent
ENCODING 536
SWIDTH 556 0
DWIDTH 11 0
BBX 10 18 0 -5
BITMAP
0F40
1DC0
38C0
38C0
3C00
1E00
0F00
0F80
0780
C380
C380
E700
FE00
0000
0C00
0C00
0400
1800
ENDCHAR
STARTCHAR scommaaccent
ENCODING 537
SWIDTH 389 0
DWIDTH 7 0
BBX 8 14 -1 -5
BITMAP
3E
77
72
38
1C
1C
4E
EE
7C
00
18
18
08
30
ENDCHAR
STARTCHAR Tcommaaccent
ENCODING 538
SWIDTH 611 0
DWIDTH 11 0
BBX 11 18 1 -5
BITMAP
FFE0
CE60
8E20
0E00
1C00
1C00
1C00
1C00
1800
3800
3800
3800
7C00
0000
1800
1800
0800
3000
ENDCHAR
STARTCHAR tcommaaccent
ENCODING 539
SWIDTH 278 0
DWIDTH 6 0
BBX 6 16 0 -5
BITMAP
30
70
FC
70
70
70
60
E0
E0
E8
70
00
30
30
10
60
ENDCHAR
STARTCHAR uni021E
ENCODING 542
SWIDTH 778 0
DWIDTH 15 0
BBX 15 17 0 0
BITMAP
0660
03C0
0180
0000
3E3E
1C1C
1C1C
1C1C
3838
3838
3FF8
3838
3838
7070
7070
7070
F8F8
ENDCHAR
STARTCHAR uni021F
ENCODING 543
SWIDTH 556 0
DWIDTH 11 0
BBX 10 18 1 0
BITMAP
6600
3C00
1800
0000
7800
3800
3800
3000
7000
7700
7F80
7380
7380
6380
E700
E700
E740
E380
ENDCHAR
STARTCHAR uni0226
ENCODING 550
SWIDTH 667 0
DWIDTH 13 0
BBX 14 16 -1 0
BITMAP
0180
0180
0000
00C0
01C0
01C0
03E0
02E0
0660
0C70
0C70
1FF0
1870
3038
7038
F87C
ENDCHAR
STARTCHAR uni0227
ENCODING 551
SWIDTH 500 0
DWIDTH 10 0
BBX 10 12 0 0
BITMAP
0C00
0C00
0000
1E80
7B80
7380
E380
E300
E700
E700
6F40
3B80
ENDCHAR
STARTCHAR uni0228
ENCODING 552
SWIDTH 667 0
DWIDTH 12 0
BBX 12 17 0 -4
BITMAP
3FF0
1C70
1C20
1C20
3880
3980
3F80
3980
3100
7020
7060
70E0
FFC0
0C00
0E00
2600
1C00
ENDCHAR
STARTCHAR uni0229
ENCODING 553
SWIDTH 444 0
DWIDTH 9 0
BBX 8 13 0 -4
BITMAP
1E
77
67
E7
EE
F8
E3
F6
7C
18
1C
4C
38
ENDCHAR
STARTCHAR uni022A
ENCODING 554
SWIDTH 722 0
DWIDTH 14 0
BBX 12 18 1 0
BITMAP
07C0
0000
0660
0660
0000
07C0
1EE0
3870
7070
7070
E070
E070
E070
E0E0
E0E0
E1C0
7780
3E00
ENDCHAR
STARTCHAR uni022B
ENCODING 555
SWIDTH 500 0
DWIDTH 10 0
BBX 9 14 0 0
BITMAP
3E00
0000
3300
3300
0000
1F00
7380
6380
E380
E380
E380
E300
E700
7C00
ENDCHAR
STARTCHAR uni022C
ENCODING 556
SWIDTH 722 0
DWIDTH 14 0
BBX 12 19 1 0
BITMAP
0F80
0000
0640
0FC0
0980
0000
07C0
1EE0
3870
7070
7070
E070
E070
E070
E0E0
E0E0
E1C0
7780
3E00
ENDCHAR
STARTCHAR uni022D
ENCODING 557
SWIDTH 500 0
DWIDTH 10 0
BBX 9 15 0 0
BITMAP
3E00
0000
1900
3F00
2600
0000
1F00
7380
6380
E380
E380
E380
E300
E700
7C00
ENDCHAR
STARTCHAR uni022E
ENCODING 558
SWIDTH 722 0
DWIDTH 14 0
BBX 12 16 1 0
BITMAP
0300
0300
0000
07C0
1EE0
3870
7070
7070
E070
E070
E070
E0E0
E0E0
E1C0
7780
3E00
ENDCHAR
STARTCHAR uni022F
ENCODING 559
SWIDTH 500 0
DWIDTH 10 0
BBX 9 12 0 0
BITMAP
0C00
0C00
0000
1F00
7380
6380
E380
E380
E380
E300
E700
7C00
ENDCHAR
STARTCHAR uni0230
ENCODING 560
SWIDTH 722 0
DWIDTH 14 0
BBX 12 18 1 0
BITMAP
0F80
0000
0300
0300
0000
07C0
1EE0
3870
7070
7070
E070
E070
E070
E0E0
E0E0
E1C0
7780
3E00
ENDCHAR
STARTCHAR uni0231
ENCODING 561
SWIDTH 500 0
DWIDTH 10 0
BBX 9 14 0 0
BITMAP
1F00
0000
0C00
0C00
0000
1F00
7380
6380
E380
E380
E380
E300
E700
7C00
ENDCHAR
STARTCHAR uni0232
ENCODING 562
SWIDTH 611 0
DWIDTH 11 0
BBX 12 15 0 0
BITMAP
1F00
0000
F8F0
7060
70C0
3980
3B00
1E00
1C00
1C00
1C00
3800
3800
3800
FE00
ENDCHAR
STARTCHAR uni0233
ENCODING 563
SWIDTH 444 0
DWIDTH 7 0
BBX 9 15 -2 -4
BITMAP
3E00
0000
7B80
3980
3980
3980
1900
1B00
1E00
0E00
0C00
0C00
C800
D800
7000
ENDCHAR
STARTCHAR uni0250
ENCODING 592
SWIDTH 500 0
DWIDTH 10 0
BBX 10 9 0 0
BITMAP
7700
BD80
39C0
39C0
31C0
71C0
7380
7780
5E00
ENDCHAR
STARTCHAR uni0259
ENCODING 601
SWIDTH 444 0
DWIDTH 9 0
BBX 8 9 0 0
BITMAP
3E
6F
C7
1F
77
E7
E6
EE
78
ENDCHAR
STARTCHAR uni025F
ENCODING 607
SWIDTH 333 0
DWIDTH 6 0
BBX 11 18 -2 -9
BITMAP
01C0
0360
0360
0300
0300
0700
0700
0700
0600
0E00
0E00
0E00
3F80
0E00
0E00
CC00
DC00
7800
ENDCHAR
STARTCHAR uni0265
ENCODING 613
SWIDTH 556 0
DWIDTH 11 0
BBX 10 14 1 -5
BITMAP
71C0
B9C0
39C0
39C0
7180
7380
7380
7F80
3B80
0380
0300
0700
0700
0780
ENDCHAR
STARTCHAR uni0275
ENCODING 629
SWIDTH 500 0
DWIDTH 10 0
BBX 9 9 0 0
BITMAP
1F00
7380
6380
E380
FF80
E380
E300
E700
7C00
ENDCHAR
STARTCHAR uni0279
ENCODING 633
SWIDTH 389 0
DWIDTH 6 0
BBX 7 9 0 0
BITMAP
0E
0E
0E
0C
1C
1C
1C
FC
EE
ENDCHAR
STARTCHAR uni0287
ENCODING 647
SWIDTH 278 0
DWIDTH 6 0
BBX 6 11 0 0
BITMAP
38
5C
1C
1C
18
38
38
38
FC
38
30
ENDCHAR
STARTCHAR uni0289
ENCODING 649
SWIDTH 556 0
DWIDTH 10 0
BBX 10 9 0 0
BITMAP
F380
7380
7380
6300
FFC0
E700
EF00
FB40
7380
ENDCHAR
STARTCHAR uni028C
ENCODING 652
SWIDTH 444 0
DWIDTH 7 0
BBX 8 9 -1 0
BITMAP
0C
1C
3C
6C
4C
4E
CE
C6
E7
ENDCHAR
STARTCHAR uni028D
ENCODING 653
SWIDTH 667 0
DWIDTH 11 0
BBX 12 9 -1 0
BITMAP
1080
19C0
3BC0
5AC0
5EE0
5EE0
CC60
CC60
CC70
ENDCHAR
STARTCHAR uni028E
ENCODING 654
SWIDTH 444 0
DWIDTH 7 0
BBX 9 13 -2 0
BITMAP
0700
0D80
0980
1800
1800
3800
3C00
6C00
4C00
CE00
CE00
CE00
EF00
ENDCHAR
STARTCHAR uni029E
ENCODING 670
SWIDTH 500 0
DWIDTH 9 0
BBX 10 14 -1 -5
BITMAP
39C0
79C0
1B80
0B80
0F80
0F80
1B00
7300
F700
0700
0600
0E00
0E00
0F00
ENDCHAR
STARTCHAR uni02BB
ENCODING 699
SWIDTH 333 0
DWIDTH 5 0
BBX 3 5 1 8
BITMAP
20
40
C0
E0
E0
ENDCHAR
STARTCHAR afii57929
ENCODING 700
SWIDTH 333 0
DWIDTH 5 0
BBX 3 5 2 8
BITMAP
E0
E0
60
40
80
ENDCHAR
STARTCHAR afii64937
ENCODING 701
SWIDTH 333 0
DWIDTH 5 0
BBX 3 5 2 8
BITMAP
E0
E0
C0
40
20
ENDCHAR
STARTCHAR circumflex
ENCODING 710
SWIDTH 333 0
DWIDTH 6 0
BBX 6 3 1 10
BITMAP
30
78
CC
ENDCHAR
STARTCHAR caron
ENCODING 711
SWIDTH 333 0
DWIDTH 6 0
BBX 6 3 1 10
BITMAP
CC
78
30
ENDCHAR
STARTCHAR uni02C8
ENCODING 712
SWIDTH 278 0
DWIDTH 5 0
BBX 3 5 1 8
BITMAP
60
60
C0
C0
80
ENDCHAR
STARTCHAR macron
ENCODING 713
SWIDTH 333 0
DWIDTH 6 0
BBX 5 1 1 11
BITMAP
F8
ENDCHAR
STARTCHAR uni02CA
ENCODING 714
SWIDTH 333 0
DWIDTH 6 0
BBX 5 3 1 10
BITMAP
38
70
C0
ENDCHAR
STARTCHAR uni02CB
ENCODING 715
SWIDTH 333 0
DWIDTH 6 0
BBX 5 3 1 10
BITMAP
E0
70
18
ENDCHAR
STARTCHAR uni02CD
ENCODING 717
SWIDTH 333 0
DWIDTH 6 0
BBX 5 1 1 -2
BITMAP
F8
ENDCHAR
STARTCHAR uni02CE
ENCODING 718
SWIDTH 333 0
DWIDTH 6 0
BBX 5 3 1 -4
BITMAP
E0
70
18
ENDCHAR
STARTCHAR uni02CF
ENCODING 719
SWIDTH 333 0
DWIDTH 6 0
BBX 5 3 1 -4
BITMAP
38
70
C0
ENDCHAR
STARTCHAR breve
ENCODING 728
SWIDTH 333 0
DWIDTH 6 0
BBX 5 3 1 10
BITMAP
88
D8
70
ENDCHAR
STARTCHAR dotaccent
ENCODING 729
SWIDTH 333 0
DWIDTH 6 0
BBX 2 2 2 11
BITMAP
C0
C0
ENDCHAR
STARTCHAR ring
ENCODING 730
SWIDTH 333 0
DWIDTH 6 0
BBX 5 4 1 10
BITMAP
70
D8
D8
70
ENDCHAR
STARTCHAR ogonek
ENCODING 731
SWIDTH 333 0
DWIDTH 6 0
BBX 5 4 0 -4
BITMAP
60
C0
F8
60
ENDCHAR
STARTCHAR tilde
ENCODING 732
SWIDTH 333 0
DWIDTH 6 0
BBX 6 3 1 10
BITMAP
64
FC
98
ENDCHAR
STARTCHAR hungarumlaut
ENCODING 733
SWIDTH 333 0
DWIDTH 8 0
BBX 8 3 1 10
BITMAP
77
66
CC
ENDCHAR
STARTCHAR uni02EE
ENCODING 750
SWIDTH 500 0
DWIDTH 9 0
BBX 7 5 2 8
BITMAP
EE
EE
66
44
88
ENDCHAR
STARTCHAR uni037E
ENCODING 894
SWIDTH 333 0
DWIDTH 7 0
BBX 5 10 0 -2
BITMAP
18
18
00
00
00
00
60
60
20
C0
ENDCHAR
STARTCHAR tonos
ENCODING 900
SWIDTH 333 0
DWIDTH 6 0
BBX 5 3 1 10
BITMAP
38
70
C0
ENDCHAR
STARTCHAR dieresistonos
ENCODING 901
SWIDTH 333 0
DWIDTH 7 0
BBX 7 6 1 11
BITMAP
0E
1C
30
00
CC
CC
ENDCHAR
STARTCHAR anoteleia
ENCODING 903
SWIDTH 250 0
DWIDTH 5 0
BBX 3 2 1 4
BITMAP
E0
E0
ENDCHAR
STARTCHAR mu
ENCODING 956
SWIDTH 576 0
DWIDTH 10 0
BBX 12 13 -2 -4
BITMAP
3CE0
1CE0
1CC0
18C0
19C0
39C0
3BC0
3ED0
7CE0
6000
4000
E000
6000
ENDCHAR
STARTCHAR uni1E00
ENCODING 7680
SWIDTH 667 0
DWIDTH 13 0
BBX 14 18 -1 -5
BITMAP
00C0
01C0
01C0
03E0
02E0
0660
0C70
0C70
1FF0
1870
3038
7038
F87C
0000
0380
06C0
06C0
0380
ENDCHAR
STARTCHAR uni1E01
ENCODING 7681
SWIDTH 500 0
DWIDTH 10 0
BBX 10 14 0 -5
BITMAP
1E80
7B80
7380
E380
E300
E700
E700
6F40
3B80
0000
1C00
3600
3600
1C00
ENDCHAR
STARTCHAR uni1E02
ENCODING 7682
SWIDTH 667 0
DWIDTH 13 0
BBX 12 16 0 0
BITMAP
0300
0300
0000
3FE0
1CF0
1C70
1C70
1860
3FC0
38E0
3870
3070
7070
70F0
71E0
FF80
ENDCHAR
STARTCHAR uni1E03
ENCODING 7683
SWIDTH 500 0
DWIDTH 9 0
BBX 10 17 -1 0
BITMAP
0C00
0C00
0000
3C00
1C00
1C00
1800
1800
3B80
3DC0
39C0
39C0
39C0
7180
7380
7300
FC00
ENDCHAR
STARTCHAR uni1E04
ENCODING 7684
SWIDTH 667 0
DWIDTH 13 0
BBX 12 16 0 -3
BITMAP
3FE0
1CF0
1C70
1C70
1860
3FC0
38E0
3870
3070
7070
70F0
71E0
FF80
0000
0600
0600
ENDCHAR
STARTCHAR uni1E05
ENCODING 7685
SWIDTH 500 0
DWIDTH 9 0
BBX 10 17 -1 -3
BITMAP
3C00
1C00
1C00
1800
1800
3B80
3DC0
39C0
39C0
39C0
7180
7380
7300
FC00
0000
1800
1800
ENDCHAR
STARTCHAR uni1E06
ENCODING 7686
SWIDTH 667 0
DWIDTH 13 0
BBX 12 15 0 -2
BITMAP
3FE0
1CF0
1C70
1C70
1860
3FC0
38E0
3870
3070
7070
70F0
71E0
FF80
0000
1F00
ENDCHAR
STARTCHAR uni1E07
ENCODING 7687
SWIDTH 500 0
DWIDTH 9 0
BBX 10 16 -1 -2
BITMAP
3C00
1C00
1C00
1800
1800
3B80
3DC0
39C0
39C0
39C0
7180
7380
7300
FC00
0000
3E00
ENDCHAR
STARTCHAR uni1E08
ENCODING 7688
SWIDTH 667 0
DWIDTH 13 0
BBX 12 21 1 -4
BITMAP
01C0
0380
0600
0000
07D0
1E70
3830
7030
7000
6000
E000
E000
E000
F000
7060
7DC0
1F00
0600
0700
1300
0E00
ENDCHAR
STARTCHAR uni1E09
ENCODING 7689
SWIDTH 444 0
DWIDTH 8 0
BBX 8 17 0 -4
BITMAP
0E
1C
30
00
1F
7B
60
E0
E0
E0
E0
76
3C
18
1C
4C
38
ENDCHAR
STARTCHAR uni1E0A
ENCODING 7690
SWIDTH 722 0
DWIDTH 14 0
BBX 13 16 0 0
BITMAP
0300
0300
0000
3F80
1DE0
1C70
1C70
3838
3838
3838
3838
7070
70F0
70E0
73C0
FF00
ENDCHAR
STARTCHAR uni1E0B
ENCODING 7691
SWIDTH 500 0
DWIDTH 9 0
BBX 10 17 0 0
BITMAP
0300
0300
0000
03C0
01C0
01C0
0180
0380
1B80
7780
6380
E300
E300
E700
E700
EF40
7B80
ENDCHAR
STARTCHAR uni1E0C
ENCODING 7692
SWIDTH 722 0
DWIDTH 14 0
BBX 13 16 0 -3
BITMAP
3F80
1DE0
1C70
1C70
3838
3838
3838
3838
7070
70F0
70E0
73C0
FF00
0000
0600
0600
ENDCHAR
STARTCHAR uni1E0D
ENCODING 7693
SWIDTH 500 0
DWIDTH 9 0
BBX 10 17 0 -3
BITMAP
03C0
01C0
01C0
0180
0380
1B80
7780
6380
E300
E300
E700
E700
EF40
7B80
0000
0C00
0C00
ENDCHAR
STARTCHAR uni1E0E
ENCODING 7694
SWIDTH 722 0
DWIDTH 14 0
BBX 13 15 0 -2
BITMAP
3F80
1DE0
1C70
1C70
3838
3838
3838
3838
7070
70F0
70E0
73C0
FF00
0000
1F00
ENDCHAR
STARTCHAR uni1E0F
ENCODING 7695
SWIDTH 500 0
DWIDTH 9 0
BBX 10 16 0 -2
BITMAP
03C0
01C0
01C0
0180
0380
1B80
7780
6380
E300
E300
E700
E700
EF40
7B80
0000
3E00
ENDCHAR
STARTCHAR uni1E10
ENCODING 7696
SWIDTH 722 0
DWIDTH 14 0
BBX 13 17 0 -4
BITMAP
3F80
1DE0
1C70
1C70
3838
3838
3838
3838
7070
70F0
70E0
73C0
FF00
0600
0700
1300
0E00
ENDCHAR
STARTCHAR uni1E11
ENCODING 7697
SWIDTH 500 0
DWIDTH 9 0
BBX 10 18 0 -4
BITMAP
03C0
01C0
01C0
0180
0380
1B80
7780
6380
E300
E300
E700
E700
EF40
7B80
0C00
0E00
2600
1C00
ENDCHAR
STARTCHAR uni1E12
ENCODING 7698
SWIDTH 722 0
DWIDTH 14 0
BBX 13 17 0 -4
BITMAP
3F80
1DE0
1C70
1C70
3838
3838
3838
3838
7070
70F0
70E0
73C0
FF00
0000
0600
0F00
1980
ENDCHAR
STARTCHAR uni1E13
ENCODING 7699
SWIDTH 500 0
DWIDTH 9 0
BBX 10 18 0 -4
BITMAP
03C0
01C0
01C0
0180
0380
1B80
7780
6380
E300
E300
E700
E700
EF40
7B80
0000
0C00
1E00
3300
ENDCHAR
STARTCHAR uni1E14
ENCODING 7700
SWIDTH 667 0
DWIDTH 12 0
BBX 12 19 0 0
BITMAP
1C00
0E00
0300
0000
0F80
0000
3FF0
1C70
1C20
1C20
3880
3980
3F80
3980
3100
7020
7060
70E0
FFC0
ENDCHAR
STARTCHAR uni1E15
ENCODING 7701
SWIDTH 444 0
DWIDTH 9 0
BBX 8 15 0 0
BITMAP
70
38
0C
00
3E
00
1E
77
67
E7
EE
F8
E3
F6
7C
ENDCHAR
STARTCHAR uni1E16
ENCODING 7702
SWIDTH 667 0
DWIDTH 12 0
BBX 12 19 0 0
BITMAP
01C0
0380
0600
0000
0F80
0000
3FF0
1C70
1C20
1C20
3880
3980
3F80
3980
3100
7020
7060
70E0
FFC0
ENDCHAR
STARTCHAR uni1E17
ENCODING 7703
SWIDTH 444 0
DWIDTH 9 0
BBX 8 15 0 0
BITMAP
07
0E
18
00
3E
00
1E
77
67
E7
EE
F8
E3
F6
7C
ENDCHAR
STARTCHAR uni1E18
ENCODING 7704
SWIDTH 667 0
DWIDTH 12 0
BBX 12 17 0 -4
BITMAP
3FF0
1C70
1C20
1C20
3880
3980
3F80
3980
3100
7020
7060
70E0
FFC0
0000
0600
0F00
1980
ENDCHAR
STARTCHAR uni1E19
ENCODING 7705
SWIDTH 444 0
DWIDTH 9 0
BBX 8 13 0 -4
BITMAP
1E
77
67
E7
EE
F8
E3
F6
7C
00
18
3C
66
ENDCHAR
STARTCHAR uni1E1A
ENCODING 7706
SWIDTH 667 0
DWIDTH 12 0
BBX 12 17 0 -4
BITMAP
3FF0
1C70
1C20
1C20
3880
3980
3F80
3980
3100
7020
7060
70E0
FFC0
0000
1900
3F00
2600
ENDCHAR
STARTCHAR uni1E1B
ENCODING 7707
SWIDTH 444 0
DWIDTH 9 0
BBX 8 13 0 -4
BITMAP
1E
77
67
E7
EE
F8
E3
F6
7C
00
32
7E
4C
ENDCHAR
STARTCHAR uni1E1C
ENCODING 7708
SWIDTH 667 0
DWIDTH 12 0
BBX 12 21 0 -4
BITMAP
0880
0D80
0700
0000
3FF0
1C70
1C20
1C20
3880
3980
3F80
3980
3100
7020
7060
70E0
FFC0
0C00
0E00
2600
1C00
ENDCHAR
STARTCHAR uni1E1D
ENCODING 7709
SWIDTH 444 0
DWIDTH 9 0
BBX 8 17 0 -4
BITMAP
22
36
1C
00
1E
77
67
E7
EE
F8
E3
F6
7C
18
1C
4C
38
ENDCHAR
STARTCHAR uni1E1E
ENCODING 7710
SWIDTH 667 0
DWIDTH 12 0
BBX 12 16 0 0
BITMAP
0300
0300
0000
3FF0
1C70
1C20
1C20
1880
3980
3F80
3980
3100
7000
7000
7000
F800
ENDCHAR
STARTCHAR uni1E1F
ENCODING 7711
SWIDTH 333 0
DWIDTH 6 0
BBX 11 21 -2 -4
BITMAP
0300
0300
0000
03C0
0760
0660
0E00
0E00
3F80
0E00
0E00
0E00
0C00
1C00
1C00
1C00
1800
1800
D800
D800
7000
ENDCHAR
STARTCHAR uni1E20
ENCODING 7712
SWIDTH 722 0
DWIDTH 14 0
BBX 12 15 1 0
BITMAP
0F80
0000
07D0
1E70
3830
7030
7000
6000
E000
E1F0
E0E0
F0E0
70C0
7DC0
1FC0
ENDCHAR
STARTCHAR uni1E21
ENCODING 7713
SWIDTH 500 0
DWIDTH 8 0
BBX 10 15 -1 -4
BITMAP
1F00
0000
1F40
3B80
7180
6180
6380
7700
3E00
7000
3E00
6F80
C380
C300
7E00
ENDCHAR
STARTCHAR uni1E22
ENCODING 7714
SWIDTH 778 0
DWIDTH 15 0
BBX 15 16 0 0
BITMAP
0180
0180
0000
3E3E
1C1C
1C1C
1C1C
3838
3838
3FF8
3838
3838
7070
7070
7070
F8F8
ENDCHAR
STARTCHAR uni1E23
ENCODING 7715
SWIDTH 556 0
DWIDTH 11 0
BBX 10 17 1 0
BITMAP
1800
1800
0000
7800
3800
3800
3000
7000
7700
7F80
7380
7380
6380
E700
E700
E740
E380
ENDCHAR
STARTCHAR uni1E24
ENCODING 7716
SWIDTH 778 0
DWIDTH 15 0
BBX 15 16 0 -3
BITMAP
3E3E
1C1C
1C1C
1C1C
3838
3838
3FF8
3838
3838
7070
7070
7070
F8F8
0000
0300
0300
ENDCHAR
STARTCHAR uni1E25
ENCODING 7717
SWIDTH 556 0
DWIDTH 11 0
BBX 10 17 1 -3
BITMAP
7800
3800
3800
3000
7000
7700
7F80
7380
7380
6380
E700
E700
E740
E380
0000
0C00
0C00
ENDCHAR
STARTCHAR uni1E26
ENCODING 7718
SWIDTH 778 0
DWIDTH 15 0
BBX 15 16 0 0
BITMAP
0660
0660
0000
3E3E
1C1C
1C1C
1C1C
3838
3838
3FF8
3838
3838
7070
7070
7070
F8F8
ENDCHAR
STARTCHAR uni1E27
ENCODING 7719
SWIDTH 556 0
DWIDTH 11 0
BBX 10 17 1 0
BITMAP
6600
6600
0000
7800
3800
3800
3000
7000
7700
7F80
7380
7380
6380
E700
E700
E740
E380
ENDCHAR
STARTCHAR uni1E28
ENCODING 7720
SWIDTH 778 0
DWIDTH 15 0
BBX 15 17 0 -4
BITMAP
3E3E
1C1C
1C1C
1C1C
3838
3838
3FF8
3838
3838
7070
7070
7070
F8F8
0300
0380
0980
0700
ENDCHAR
STARTCHAR uni1E29
ENCODING 7721
SWIDTH 556 0
DWIDTH 11 0
BBX 10 18 1 -4
BITMAP
7800
3800
3800
3000
7000
7700
7F80
7380
7380
6380
E700
E700
E740
E380
0C00
0E00
2600
1C00
ENDCHAR
STARTCHAR uni1E2A
ENCODING 7722
SWIDTH 778 0
DWIDTH 15 0
BBX 15 17 0 -4
BITMAP
3E3E
1C1C
1C1C
1C1C
3838
3838
3FF8
3838
3838
7070
7070
7070
F8F8
0000
0880
0D80
0700
ENDCHAR
STARTCHAR uni1E2B
ENCODING 7723
SWIDTH 556 0
DWIDTH 11 0
BBX 10 18 1 -4
BITMAP
7800
3800
3800
3000
7000
7700
7F80
7380
7380
6380
E700
E700
E740
E380
0000
2200
3600
1C00
ENDCHAR
STARTCHAR uni1E2C
ENCODING 7724
SWIDTH 389 0
DWIDTH 7 0
BBX 7 17 0 -4
BITMAP
3E
1C
1C
1C
38
38
38
38
70
70
70
70
F8
00
64
FC
98
ENDCHAR
STARTCHAR uni1E2D
ENCODING 7725
SWIDTH 278 0
DWIDTH 5 0
BBX 6 18 -1 -4
BITMAP
18
18
18
00
00
78
38
38
30
30
70
70
74
38
00
64
FC
98
ENDCHAR
STARTCHAR uni1E2E
ENCODING 7726
SWIDTH 389 0
DWIDTH 7 0
BBX 8 20 0 0
BITMAP
07
0E
18
00
33
33
00
3E
1C
1C
1C
38
38
38
38
70
70
70
70
F8
ENDCHAR
STARTCHAR uni1E2F
ENCODING 7727
SWIDTH 278 0
DWIDTH 5 0
BBX 6 16 0 0
BITMAP
1C
38
60
00
D8
D8
00
F0
70
70
60
60
E0
E0
F0
60
ENDCHAR
STARTCHAR uni1E30
ENCODING 7728
SWIDTH 667 0
DWIDTH 12 0
BBX 14 17 -1 0
BITMAP
00E0
01C0
0300
0000
3E7C
1C30
1C60
1CC0
3980
3F00
3F00
3B80
3B80
71C0
71C0
70E0
F9F0
ENDCHAR
STARTCHAR uni1E31
ENCODING 7729
SWIDTH 500 0
DWIDTH 9 0
BBX 10 18 -1 0
BITMAP
0700
0E00
1800
0000
3C00
1C00
1C00
1800
3800
3BC0
3380
3600
7C00
7C00
7400
7600
E780
E700
ENDCHAR
STARTCHAR uni1E32
ENCODING 7730
SWIDTH 667 0
DWIDTH 12 0
BBX 14 16 -1 -3
BITMAP
3E7C
1C30
1C60
1CC0
3980
3F00
3F00
3B80
3B80
71C0
71C0
70E0
F9F0
0000
0600
0600
ENDCHAR
STARTCHAR uni1E33
ENCODING 7731
SWIDTH 500 0
DWIDTH 9 0
BBX 10 17 -1 -3
BITMAP
3C00
1C00
1C00
1800
3800
3BC0
3380
3600
7C00
7C00
7400
7600
E780
E700
0000
1800
1800
ENDCHAR
STARTCHAR uni1E34
ENCODING 7732
SWIDTH 667 0
DWIDTH 12 0
BBX 14 15 -1 -2
BITMAP
3E7C
1C30
1C60
1CC0
3980
3F00
3F00
3B80
3B80
71C0
71C0
70E0
F9F0
0000
0F80
ENDCHAR
STARTCHAR uni1E35
ENCODING 7733
SWIDTH 500 0
DWIDTH 9 0
BBX 10 16 -1 -2
BITMAP
3C00
1C00
1C00
1800
3800
3BC0
3380
3600
7C00
7C00
7400
7600
E780
E700
0000
3E00
ENDCHAR
STARTCHAR uni1E36
ENCODING 7734
SWIDTH 611 0
DWIDTH 11 0
BBX 11 16 0 -3
BITMAP
3E00
1C00
1C00
1C00
3800
3800
3800
3800
3000
7060
7060
71C0
FFC0
0000
0C00
0C00
ENDCHAR
STARTCHAR uni1E37
ENCODING 7735
SWIDTH 278 0
DWIDTH 5 0
BBX 5 17 0 -3
BITMAP
78
38
38
30
70
70
70
70
60
E0
E0
E0
E8
70
00
60
60
ENDCHAR
STARTCHAR uni1E38
ENCODING 7736
SWIDTH 611 0
DWIDTH 11 0
BBX 11 18 0 -3
BITMAP
3E00
0000
3E00
1C00
1C00
1C00
3800
3800
3800
3800
3000
7060
7060
71C0
FFC0
0000
0C00
0C00
ENDCHAR
STARTCHAR uni1E39
ENCODING 7737
SWIDTH 278 0
DWIDTH 5 0
BBX 5 19 0 -3
BITMAP
F8
00
78
38
38
30
70
70
70
70
60
E0
E0
E0
E8
70
00
60
60
ENDCHAR
STARTCHAR uni1E3A
ENCODING 7738
SWIDTH 611 0
DWIDTH 11 0
BBX 11 15 0 -2
BITMAP
3E00
1C00
1C00
1C00
3800
3800
3800
3800
3000
7060
7060
71C0
FFC0
0000
1F00
ENDCHAR
STARTCHAR uni1E3B
ENCODING 7739
SWIDTH 278 0
DWIDTH 5 0
BBX 5 16 0 -2
BITMAP
78
38
38
30
70
70
70
70
60
E0
E0
E0
E8
70
00
F8
ENDCHAR
STARTCHAR uni1E3C
ENCODING 7740
SWIDTH 611 0
DWIDTH 11 0
BBX 11 17 0 -4
BITMAP
3E00
1C00
1C00
1C00
3800
3800
3800
3800
3000
7060
7060
71C0
FFC0
0000
0C00
1E00
3300
ENDCHAR
STARTCHAR uni1E3D
ENCODING 7741
SWIDTH 278 0
DWIDTH 5 0
BBX 6 18 -1 -4
BITMAP
3C
1C
1C
18
38
38
38
38
30
70
70
70
74
38
00
30
78
CC
ENDCHAR
STARTCHAR uni1E3E
ENCODING 7742
SWIDTH 889 0
DWIDTH 17 0
BBX 18 17 0 0
BITMAP
003800
007000
00C000
000000
3E0FC0
1E0F80
1E1F00
1E1700
1F3600
372600
376E00
374E00
33CC00
638C00
639C00
631C00
F23E00
ENDCHAR
STARTCHAR uni1E3F
ENCODING 7743
SWIDTH 778 0
DWIDTH 14 0
BBX 14 13 0 0
BITMAP
01C0
0380
0600
0000
F770
7BB8
7338
7338
7338
F230
E670
E674
E678
ENDCHAR
STARTCHAR uni1E40
ENCODING 7744
SWIDTH 889 0
DWIDTH 17 0
BBX 18 16 0 0
BITMAP
006000
006000
000000
3E0FC0
1E0F80
1E1F00
1E1700
1F3600
372600
376E00
374E00
33CC00
638C00
639C00
631C00
F23E00
ENDCHAR
STARTCHAR uni1E41
ENCODING 7745
SWIDTH 778 0
DWIDTH 14 0
BBX 14 12 0 0
BITMAP
0300
0300
0000
F770
7BB8
7338
7338
7338
F230
E670
E674
E678
ENDCHAR
STARTCHAR uni1E42
ENCODING 7746
SWIDTH 889 0
DWIDTH 17 0
BBX 18 16 0 -3
BITMAP
3E0FC0
1E0F80
1E1F00
1E1700
1F3600
372600
376E00
374E00
33CC00
638C00
639C00
631C00
F23E00
000000
018000
018000
ENDCHAR
STARTCHAR uni1E43
ENCODING 7747
SWIDTH 778 0
DWIDTH 14 0
BBX 14 12 0 -3
BITMAP
F770
7BB8
7338
7338
7338
F230
E670
E674
E678
0000
0300
0300
ENDCHAR
STARTCHAR uni1E44
ENCODING 7748
SWIDTH 722 0
DWIDTH 13 0
BBX 15 16 -1 0
BITMAP
0180
0180
0000
3C1E
1C0C
1E0C
1E0C
1B18
3398
3398
31D8
31D0
60F0
60F0
6060
F060
ENDCHAR
STARTCHAR uni1E45
ENCODING 7749
SWIDTH 556 0
DWIDTH 10 0
BBX 10 12 0 0
BITMAP
0C00
0C00
0000
F700
7B80
7380
7380
7380
6300
E700
E740
E380
ENDCHAR
STARTCHAR uni1E46
ENCODING 7750
SWIDTH 722 0
DWIDTH 13 0
BBX 15 16 -1 -3
BITMAP
3C1E
1C0C
1E0C
1E0C
1B18
3398
3398
31D8
31D0
60F0
60F0
6060
F060
0000
0300
0300
ENDCHAR
STARTCHAR uni1E47
ENCODING 7751
SWIDTH 556 0
DWIDTH 10 0
BBX 10 12 0 -3
BITMAP
F700
7B80
7380
7380
7380
6300
E700
E740
E380
0000
0C00
0C00
ENDCHAR
STARTCHAR uni1E48
ENCODING 7752
SWIDTH 722 0
DWIDTH 13 0
BBX 15 15 -1 -2
BITMAP
3C1E
1C0C
1E0C
1E0C
1B18
3398
3398
31D8
31D0
60F0
60F0
6060
F060
0000
0F80
ENDCHAR
STARTCHAR uni1E49
ENCODING 7753
SWIDTH 556 0
DWIDTH 10 0
BBX 10 11 0 -2
BITMAP
F700
7B80
7380
7380
7380
6300
E700
E740
E380
0000
3E00
ENDCHAR
STARTCHAR uni1E4A
ENCODING 7754
SWIDTH 722 0
DWIDTH 13 0
BBX 15 17 -1 -4
BITMAP
3C1E
1C0C
1E0C
1E0C
1B18
3398
3398
31D8
31D0
60F0
60F0
6060
F060
0000
0300
0780
0CC0
ENDCHAR
STARTCHAR uni1E4B
ENCODING 7755
SWIDTH 556 0
DWIDTH 10 0
BBX 10 13 0 -4
BITMAP
F700
7B80
7380
7380
7380
6300
E700
E740
E380
0000
0C00
1E00
3300
ENDCHAR
STARTCHAR uni1E4C
ENCODING 7756
SWIDTH 722 0
DWIDTH 14 0
BBX 12 21 1 0
BITMAP
01C0
0380
0600
0000
0640
0FC0
0980
0000
07C0
1EE0
3870
7070
7070
E070
E070
E070
E0E0
E0E0
E1C0
7780
3E00
ENDCHAR
STARTCHAR uni1E4D
ENCODING 7757
SWIDTH 500 0
DWIDTH 10 0
BBX 9 17 0 0
BITMAP
0700
0E00
1800
0000
1900
3F00
2600
0000
1F00
7380
6380
E380
E380
E380
E300
E700
7C00
ENDCHAR
STARTCHAR uni1E4E
ENCODING 7758
SWIDTH 722 0
DWIDTH 14 0
BBX 12 20 1 0
BITMAP
0CC0
0CC0
0000
0640
0FC0
0980
0000
07C0
1EE0
3870
7070
7070
E070
E070
E070
E0E0
E0E0
E1C0
7780
3E00
ENDCHAR
STARTCHAR uni1E4F
ENCODING 7759
SWIDTH 500 0
DWIDTH 10 0
BBX 9 16 0 0
BITMAP
3300
3300
0000
1900
3F00
2600
0000
1F00
7380
6380
E380
E380
E380
E300
E700
7C00
ENDCHAR
STARTCHAR uni1E50
ENCODING 7760
SWIDTH 722 0
DWIDTH 14 0
BBX 12 19 1 0
BITMAP
1C00
0E00
0300
0000
0F80
0000
07C0
1EE0
3870
7070
7070
E070
E070
E070
E0E0
E0E0
E1C0
7780
3E00
ENDCHAR
STARTCHAR uni1E51
ENCODING 7761
SWIDTH 500 0
DWIDTH 10 0
BBX 9 15 0 0
BITMAP
3800
1C00
0600
0000
1F00
0000
1F00
7380
6380
E380
E380
E380
E300
E700
7C00
ENDCHAR
STARTCHAR uni1E52
ENCODING 7762
SWIDTH 722 0
DWIDTH 14 0
BBX 12 19 1 0
BITMAP
01C0
0380
0600
0000
0F80
0000
07C0
1EE0
3870
7070
7070
E070
E070
E070
E0E0
E0E0
E1C0
7780
3E00
ENDCHAR
STARTCHAR uni1E53
ENCODING 7763
SWIDTH 500 0
DWIDTH 10 0
BBX 9 15 0 0
BITMAP
0380
0700
0C00
0000
1F00
0000
1F00
7380
6380
E380
E380
E380
E300
E700
7C00
ENDCHAR
STARTCHAR uni1E54
ENCODING 7764
SWIDTH 611 0
DWIDTH 11 0
BBX 12 17 0 0
BITMAP
01C0
0380
0600
0000
3FE0
1CF0
1C70
1C70
3870
38E0
3FC0
3800
3000
7000
7000
7000
F800
ENDCHAR
STARTCHAR uni1E55
ENCODING 7765
SWIDTH 500 0
DWIDTH 9 0
BBX 11 17 -2 -4
BITMAP
01C0
0380
0600
0000
3BC0
1EE0
1CE0
1CE0
1CE0
38C0
39C0
3980
3700
3000
7000
7000
F800
ENDCHAR
STARTCHAR uni1E56
ENCODING 7766
SWIDTH 611 0
DWIDTH 11 0
BBX 12 16 0 0
BITMAP
0300
0300
0000
3FE0
1CF0
1C70
1C70
3870
38E0
3FC0
3800
3000
7000
7000
7000
F800
ENDCHAR
STARTCHAR uni1E57
ENCODING 7767
SWIDTH 500 0
DWIDTH 9 0
BBX 11 16 -2 -4
BITMAP
0600
0600
0000
3BC0
1EE0
1CE0
1CE0
1CE0
38C0
39C0
3980
3700
3000
7000
7000
F800
ENDCHAR
STARTCHAR uni1E58
ENCODING 7768
SWIDTH 667 0
DWIDTH 12 0
BBX 12 16 0 0
BITMAP
0300
0300
0000
3FE0
1CF0
1C70
1C70
3870
38E0
3FC0
3F80
3B80
71C0
71C0
70E0
F8F0
ENDCHAR
STARTCHAR uni1E59
ENCODING 7769
SWIDTH 389 0
DWIDTH 6 0
BBX 7 12 0 0
BITMAP
18
18
00
EE
7E
70
70
70
60
E0
E0
E0
ENDCHAR
STARTCHAR uni1E5A
ENCODING 7770
SWIDTH 667 0
DWIDTH 12 0
BBX 12 16 0 -3
BITMAP
3FE0
1CF0
1C70
1C70
3870
38E0
3FC0
3F80
3B80
71C0
71C0
70E0
F8F0
0000
0600
0600
ENDCHAR
STARTCHAR uni1E5B
ENCODING 7771
SWIDTH 389 0
DWIDTH 6 0
BBX 7 12 0 -3
BITMAP
EE
7E
70
70
70
60
E0
E0
E0
00
60
60
ENDCHAR
STARTCHAR uni1E5C
ENCODING 7772
SWIDTH 667 0
DWIDTH 12 0
BBX 12 18 0 -3
BITMAP
0F80
0000
3FE0
1CF0
1C70
1C70
3870
38E0
3FC0
3F80
3B80
71C0
71C0
70E0
F8F0
0000
0600
0600
ENDCHAR
STARTCHAR uni1E5D
ENCODING 7773
SWIDTH 389 0
DWIDTH 6 0
BBX 7 14 0 -3
BITMAP
7C
00
EE
7E
70
70
70
60
E0
E0
E0
00
60
60
ENDCHAR
STARTCHAR uni1E5E
ENCODING 7774
SWIDTH 667 0
DWIDTH 12 0
BBX 12 15 0 -2
BITMAP
3FE0
1CF0
1C70
1C70
3870
38E0
3FC0
3F80
3B80
71C0
71C0
70E0
F8F0
0000
1F00
ENDCHAR
STARTCHAR uni1E5F
ENCODING 7775
SWIDTH 389 0
DWIDTH 6 0
BBX 7 11 0 -2
BITMAP
EE
7E
70
70
70
60
E0
E0
E0
00
F8
ENDCHAR
STARTCHAR uni1E60
ENCODING 7776
SWIDTH 556 0
DWIDTH 11 0
BBX 10 16 0 0
BITMAP
0600
0600
0000
0F40
1DC0
38C0
38C0
3C00
1E00
0F00
0F80
0780
C380
C380
E700
FE00
ENDCHAR
STARTCHAR uni1E61
ENCODING 7777
SWIDTH 389 0
DWIDTH 7 0
BBX 8 12 -1 0
BITMAP
18
18
00
3E
77
72
38
1C
1C
4E
EE
7C
ENDCHAR
STARTCHAR uni1E62
ENCODING 7778
SWIDTH 556 0
DWIDTH 11 0
BBX 10 16 0 -3
BITMAP
0F40
1DC0
38C0
38C0
3C00
1E00
0F00
0F80
0780
C380
C380
E700
FE00
0000
1800
1800
ENDCHAR
STARTCHAR uni1E63
ENCODING 7779
SWIDTH 389 0
DWIDTH 7 0
BBX 8 12 -1 -3
BITMAP
3E
77
72
38
1C
1C
4E
EE
7C
00
18
18
ENDCHAR
STARTCHAR uni1E64
ENCODING 7780
SWIDTH 556 0
DWIDTH 11 0
BBX 10 20 0 0
BITMAP
0600
0600
0000
0380
0700
0C00
0000
0F40
1DC0
38C0
38C0
3C00
1E00
0F00
0F80
0780
C380
C380
E700
FE00
ENDCHAR
STARTCHAR uni1E65
ENCODING 7781
SWIDTH 389 0
DWIDTH 7 0
BBX 8 16 -1 0
BITMAP
0C
0C
00
07
0E
18
00
3E
77
72
38
1C
1C
4E
EE
7C
ENDCHAR
STARTCHAR uni1E66
ENCODING 7782
SWIDTH 556 0
DWIDTH 11 0
BBX 10 16 0 0
BITMAP
0600
0600
0000
0CC0
0780
0300
0F00
1DC0
38C0
38C0
1E00
0F00
C780
C380
E700
FE00
ENDCHAR
STARTCHAR uni1E67
ENCODING 7783
SWIDTH 389 0
DWIDTH 7 0
BBX 8 14 -1 0
BITMAP
0C
0C
00
33
1E
0C
3E
77
72
38
1C
4E
EE
7C
ENDCHAR
STARTCHAR uni1E68
ENCODING 7784
SWIDTH 556 0
DWIDTH 11 0
BBX 10 19 0 -3
BITMAP
0600
0600
0000
0F40
1DC0
38C0
38C0
3C00
1E00
0F00
0F80
0780
C380
C380
E700
FE00
0000
1800
1800
ENDCHAR
STARTCHAR uni1E69
ENCODING 7785
SWIDTH 389 0
DWIDTH 7 0
BBX 8 15 -1 -3
BITMAP
18
18
00
3E
77
72
38
1C
1C
4E
EE
7C
00
18
18
ENDCHAR
STARTCHAR uni1E6A
ENCODING 7786
SWIDTH 611 0
DWIDTH 11 0
BBX 11 16 1 0
BITMAP
0600
0600
0000
FFE0
CE60
8E20
0E00
1C00
1C00
1C00
1C00
1800
3800
3800
3800
7C00
ENDCHAR
STARTCHAR uni1E6B
ENCODING 7787
SWIDTH 278 0
DWIDTH 6 0
BBX 6 14 0 0
BITMAP
30
30
00
30
70
FC
70
70
70
60
E0
E0
E8
70
ENDCHAR
STARTCHAR uni1E6C
ENCODING 7788
SWIDTH 611 0
DWIDTH 11 0
BBX 11 16 1 -3
BITMAP
FFE0
CE60
8E20
0E00
1C00
1C00
1C00
1C00
1800
3800
3800
3800
7C00
0000
1800
1800
ENDCHAR
STARTCHAR uni1E6D
ENCODING 7789
SWIDTH 278 0
DWIDTH 6 0
BBX 6 14 0 -3
BITMAP
30
70
FC
70
70
70
60
E0
E0
E8
70
00
60
60
ENDCHAR
STARTCHAR uni1E6E
ENCODING 7790
SWIDTH 611 0
DWIDTH 11 0
BBX 11 15 1 -2
BITMAP
FFE0
CE60
8E20
0E00
1C00
1C00
1C00
1C00
1800
3800
3800
3800
7C00
0000
3E00
ENDCHAR
STARTCHAR uni1E6F
ENCODING 7791
SWIDTH 278 0
DWIDTH 6 0
BBX 6 13 0 -2
BITMAP
30
70
FC
70
70
70
60
E0
E0
E8
70
00
F8
ENDCHAR
STARTCHAR uni1E70
ENCODING 7792
SWIDTH 611 0
DWIDTH 11 0
BBX 11 17 1 -4
BITMAP
FFE0
CE60
8E20
0E00
1C00
1C00
1C00
1C00
1800
3800
3800
3800
7C00
0000
1800
3C00
6600
ENDCHAR
STARTCHAR uni1E71
ENCODING 7793
SWIDTH 278 0
DWIDTH 6 0
BBX 7 15 -1 -4
BITMAP
18
38
7E
38
38
38
30
70
70
74
38
00
30
78
CC
ENDCHAR
STARTCHAR uni1E72
ENCODING 7794
SWIDTH 722 0
DWIDTH 14 0
BBX 14 16 1 -3
BITMAP
7E7C
3838
3830
7830
7060
7060
7060
F060
E0C0
E0C0
E0C0
F180
7F00
0000
3300
3300
ENDCHAR
STARTCHAR uni1E73
ENCODING 7795
SWIDTH 556 0
DWIDTH 10 0
BBX 10 12 0 -3
BITMAP
F380
7380
7380
6300
6700
E700
EF00
FB40
7380
0000
3300
3300
ENDCHAR
STARTCHAR uni1E74
ENCODING 7796
SWIDTH 722 0
DWIDTH 14 0
BBX 14 17 1 -4
BITMAP
7E7C
3838
3830
7830
7060
7060
7060
F060
E0C0
E0C0
E0C0
F180
7F00
0000
1900
3F00
2600
ENDCHAR
STARTCHAR uni1E75
ENCODING 7797
SWIDTH 556 0
DWIDTH 10 0
BBX 10 13 0 -4
BITMAP
F380
7380
7380
6300
6700
E700
EF00
FB40
7380
0000
1900
3F00
2600
ENDCHAR
STARTCHAR uni1E76
ENCODING 7798
SWIDTH 722 0
DWIDTH 14 0
BBX 14 17 1 -4
BITMAP
7E7C
3838
3830
7830
7060
7060
7060
F060
E0C0
E0C0
E0C0
F180
7F00
0000
0C00
1E00
3300
ENDCHAR
STARTCHAR uni1E77
ENCODING 7799
SWIDTH 556 0
DWIDTH 10 0
BBX 10 13 0 -4
BITMAP
F380
7380
7380
6300
6700
E700
EF00
FB40
7380
0000
0C00
1E00
3300
ENDCHAR
STARTCHAR uni1E78
ENCODING 7800
SWIDTH 722 0
DWIDTH 14 0
BBX 14 21 1 0
BITMAP
00E0
01C0
0300
0000
0640
0FC0
0980
0000
7E7C
3838
3830
7830
7060
7060
7060
F060
E0C0
E0C0
E0C0
F180
7F00
ENDCHAR
STARTCHAR uni1E79
ENCODING 7801
SWIDTH 556 0
DWIDTH 10 0
BBX 10 17 0 0
BITMAP
0380
0700
0C00
0000
1900
3F00
2600
0000
F380
7380
7380
6300
6700
E700
EF00
FB40
7380
ENDCHAR
STARTCHAR uni1E7A
ENCODING 7802
SWIDTH 722 0
DWIDTH 14 0
BBX 14 18 1 0
BITMAP
0CC0
0CC0
0000
0F80
0000
7E7C
3838
3830
7830
7060
7060
7060
F060
E0C0
E0C0
E0C0
F180
7F00
ENDCHAR
STARTCHAR uni1E7B
ENCODING 7803
SWIDTH 556 0
DWIDTH 10 0
BBX 10 14 0 0
BITMAP
3300
3300
0000
3E00
0000
F380
7380
7380
6300
6700
E700
EF00
FB40
7380
ENDCHAR
STARTCHAR uni1E7C
ENCODING 7804
SWIDTH 667 0
DWIDTH 13 0
BBX 12 17 2 0
BITMAP
0C80
1F80
1300
0000
F9F0
70E0
70C0
7180
7180
7300
7600
7600
7C00
7800
7800
7000
6000
ENDCHAR
STARTCHAR uni1E7D
ENCODING 7805
SWIDTH 444 0
DWIDTH 7 0
BBX 8 13 -1 0
BITMAP
32
7E
4C
00
E7
63
73
72
32
36
3C
38
30
ENDCHAR
STARTCHAR uni1E7E
ENCODING 7806
SWIDTH 667 0
DWIDTH 13 0
BBX 12 16 2 -3
BITMAP
F9F0
70E0
70C0
7180
7180
7300
7600
7600
7C00
7800
7800
7000
6000
0000
1800
1800
ENDCHAR
STARTCHAR uni1E7F
ENCODING 7807
SWIDTH 444 0
DWIDTH 7 0
BBX 8 12 -1 -3
BITMAP
E7
63
73
72
32
36
3C
38
30
00
18
18
ENDCHAR
STARTCHAR Wgrave
ENCODING 7808
SWIDTH 889 0
DWIDTH 17 0
BBX 17 17 1 0
BITMAP
070000
038000
00C000
000000
F3E780
71C300
71C600
71C400
71CC00
73C800
73D800
75D000
3CF000
38E000
38E000
30C000
30C000
ENDCHAR
STARTCHAR wgrave
ENCODING 7809
SWIDTH 667 0
DWIDTH 11 0
BBX 12 13 -1 0
BITMAP
1C00
0E00
0300
0000
E330
6330
6330
77A0
77A0
35A0
3DC0
3980
1080
ENDCHAR
STARTCHAR Wacute
ENCODING 7810
SWIDTH 889 0
DWIDTH 17 0
BBX 17 17 1 0
BITMAP
007000
00E000
018000
000000
F3E780
71C300
71C600
71C400
71CC00
73C800
73D800
75D000
3CF000
38E000
38E000
30C000
30C000
ENDCHAR
STARTCHAR wacute
ENCODING 7811
SWIDTH 667 0
DWIDTH 11 0
BBX 12 13 -1 0
BITMAP
01C0
0380
0600
0000
E330
6330
6330
77A0
77A0
35A0
3DC0
3980
1080
ENDCHAR
STARTCHAR Wdieresis
ENCODING 7812
SWIDTH 889 0
DWIDTH 17 0
BBX 17 16 1 0
BITMAP
066000
066000
000000
F3E780
71C300
71C600
71C400
71CC00
73C800
73D800
75D000
3CF000
38E000
38E000
30C000
30C000
ENDCHAR
STARTCHAR wdieresis
ENCODING 7813
SWIDTH 667 0
DWIDTH 11 0
BBX 12 12 -1 0
BITMAP
1980
1980
0000
E330
6330
6330
77A0
77A0
35A0
3DC0
3980
1080
ENDCHAR
STARTCHAR uni1E86
ENCODING 7814
SWIDTH 889 0
DWIDTH 17 0
BBX 17 16 1 0
BITMAP
018000
018000
000000
F3E780
71C300
71C600
71C400
71CC00
73C800
73D800
75D000
3CF000
38E000
38E000
30C000
30C000
ENDCHAR
STARTCHAR uni1E87
ENCODING 7815
SWIDTH 667 0
DWIDTH 11 0
BBX 12 12 -1 0
BITMAP
0600
0600
0000
E330
6330
6330
77A0
77A0
35A0
3DC0
3980
1080
ENDCHAR
STARTCHAR uni1E88
ENCODING 7816
SWIDTH 889 0
DWIDTH 17 0
BBX 17 16 1 -3
BITMAP
F3E780
71C300
71C600
71C400
71CC00
73C800
73D800
75D000
3CF000
38E000
38E000
30C000
30C000
000000
030000
030000
ENDCHAR
STARTCHAR uni1E89
ENCODING 7817
SWIDTH 667 0
DWIDTH 11 0
BBX 12 12 -1 -3
BITMAP
E330
6330
6330
77A0
77A0
35A0
3DC0
3980
1080
0000
0600
0600
ENDCHAR
STARTCHAR uni1E8A
ENCODING 7818
SWIDTH 667 0
DWIDTH 13 0
BBX 15 16 -1 0
BITMAP
0180
0180
0000
3F3E
0E18
0E30
0760
07C0
0380
0380
07C0
0DC0
19C0
30E0
60E0
F1F8
ENDCHAR
STARTCHAR uni1E8B
ENCODING 7819
SWIDTH 500 0
DWIDTH 9 0
BBX 9 12 0 0
BITMAP
0C00
0C00
0000
7B80
3B00
1E00
1C00
1C00
3C00
6E00
CE80
E700
ENDCHAR
STARTCHAR uni1E8C
ENCODING 7820
SWIDTH 667 0
DWIDTH 13 0
BBX 15 16 -1 0
BITMAP
0660
0660
0000
3F3E
0E18
0E30
0760
07C0
0380
0380
07C0
0DC0
19C0
30E0
60E0
F1F8
ENDCHAR
STARTCHAR uni1E8D
ENCODING 7821
SWIDTH 500 0
DWIDTH 9 0
BBX 9 12 0 0
BITMAP
3300
3300
0000
7B80
3B00
1E00
1C00
1C00
3C00
6E00
CE80
E700
ENDCHAR
STARTCHAR uni1E8E
ENCODING 7822
SWIDTH 611 0
DWIDTH 11 0
BBX 12 16 0 0
BITMAP
0600
0600
0000
F8F0
7060
70C0
3980
3B00
1E00
1C00
1C00
1C00
3800
3800
3800
FE00
ENDCHAR
STARTCHAR uni1E8F
ENCODING 7823
SWIDTH 444 0
DWIDTH 7 0
BBX 9 16 -2 -4
BITMAP
0C00
0C00
0000
7B80
3980
3980
3980
1900
1B00
1E00
0E00
0C00
0C00
C800
D800
7000
ENDCHAR
STARTCHAR uni1E90
ENCODING 7824
SWIDTH 611 0
DWIDTH 11 0
BBX 13 17 -1 0
BITMAP
0300
0780
0CC0
0000
1FF8
38F0
20E0
01C0
0380
0700
0F00
0E00
1C00
3820
7060
F0E0
FFC0
ENDCHAR
STARTCHAR uni1E91
ENCODING 7825
SWIDTH 389 0
DWIDTH 7 0
BBX 7 14 0 -1
BITMAP
18
3C
66
00
3E
7E
4C
18
18
30
60
E6
F6
1C
ENDCHAR
STARTCHAR uni1E92
ENCODING 7826
SWIDTH 611 0
DWIDTH 11 0
BBX 13 16 -1 -3
BITMAP
1FF8
38F0
20E0
01C0
0380
0700
0F00
0E00
1C00
3820
7060
F0E0
FFC0
0000
0600
0600
ENDCHAR
STARTCHAR uni1E93
ENCODING 7827
SWIDTH 389 0
DWIDTH 7 0
BBX 7 13 0 -4
BITMAP
3E
7E
4C
18
18
30
60
E6
F6
1C
00
18
18
ENDCHAR
STARTCHAR uni1E94
ENCODING 7828
SWIDTH 611 0
DWIDTH 11 0
BBX 13 15 -1 -2
BITMAP
1FF8
38F0
20E0
01C0
0380
0700
0F00
0E00
1C00
3820
7060
F0E0
FFC0
0000
1F00
ENDCHAR
STARTCHAR uni1E95
ENCODING 7829
SWIDTH 389 0
DWIDTH 7 0
BBX 7 12 0 -3
BITMAP
3E
7E
4C
18
18
30
60
E6
F6
1C
00
7C
ENDCHAR
STARTCHAR uni1E96
ENCODING 7830
SWIDTH 556 0
DWIDTH 11 0
BBX 10 16 1 -2
BITMAP
7800
3800
3800
3000
7000
7700
7F80
7380
7380
6380
E700
E700
E740
E380
0000
3E00
ENDCHAR
STARTCHAR uni1E97
ENCODING 7831
SWIDTH 278 0
DWIDTH 6 0
BBX 6 14 0 0
BITMAP
CC
CC
00
30
70
FC
70
70
70
60
E0
E0
E8
70
ENDCHAR
STARTCHAR uni1E98
ENCODING 7832
SWIDTH 667 0
DWIDTH 11 0
BBX 12 14 -1 0
BITMAP
0700
0D80
0D80
0700
0000
E330
6330
6330
77A0
77A0
35A0
3DC0
3980
1080
ENDCHAR
STARTCHAR uni1E99
ENCODING 7833
SWIDTH 444 0
DWIDTH 7 0
BBX 9 18 -2 -4
BITMAP
1C00
3600
3600
1C00
0000
7B80
3980
3980
3980
1900
1B00
1E00
0E00
0C00
0C00
C800
D800
7000
ENDCHAR
STARTCHAR uni1EA0
ENCODING 7840
SWIDTH 667 0
DWIDTH 13 0
BBX 14 16 -1 -3
BITMAP
00C0
01C0
01C0
03E0
02E0
0660
0C70
0C70
1FF0
1870
3038
7038
F87C
0000
0300
0300
ENDCHAR
STARTCHAR uni1EA1
ENCODING 7841
SWIDTH 500 0
DWIDTH 10 0
BBX 10 12 0 -3
BITMAP
1E80
7B80
7380
E380
E300
E700
E700
6F40
3B80
0000
0C00
0C00
ENDCHAR
STARTCHAR uni1EA4
ENCODING 7844
SWIDTH 667 0
DWIDTH 13 0
BBX 14 21 -1 0
BITMAP
0070
00E0
0180
0000
00C0
01E0
0330
0000
00C0
01C0
01C0
03E0
02E0
0660
0C70
0C70
1FF0
1870
3038
7038
F87C
ENDCHAR
STARTCHAR uni1EA5
ENCODING 7845
SWIDTH 500 0
DWIDTH 10 0
BBX 10 17 0 0
BITMAP
0380
0700
0C00
0000
0600
0F00
1980
0000
1E80
7B80
7380
E380
E300
E700
E700
6F40
3B80
ENDCHAR
STARTCHAR uni1EA6
ENCODING 7846
SWIDTH 667 0
DWIDTH 13 0
BBX 14 21 -1 0
BITMAP
0700
0380
00C0
0000
00C0
01E0
0330
0000
00C0
01C0
01C0
03E0
02E0
0660
0C70
0C70
1FF0
1870
3038
7038
F87C
ENDCHAR
STARTCHAR uni1EA7
ENCODING 7847
SWIDTH 500 0
DWIDTH 10 0
BBX 10 17 0 0
BITMAP
3800
1C00
0600
0000
0600
0F00
1980
0000
1E80
7B80
7380
E380
E300
E700
E700
6F40
3B80
ENDCHAR
STARTCHAR uni1EAA
ENCODING 7850
SWIDTH 667 0
DWIDTH 13 0
BBX 14 21 -1 0
BITMAP
0320
07E0
04C0
0000
00C0
01E0
0330
0000
00C0
01C0
01C0
03E0
02E0
0660
0C70
0C70
1FF0
1870
3038
7038
F87C
ENDCHAR
STARTCHAR uni1EAB
ENCODING 7851
SWIDTH 500 0
DWIDTH 10 0
BBX 10 17 0 0
BITMAP
0C80
1F80
1300
0000
0600
0F00
1980
0000
1E80
7B80
7380
E380
E300
E700
E700
6F40
3B80
ENDCHAR
STARTCHAR uni1EAC
ENCODING 7852
SWIDTH 667 0
DWIDTH 13 0
BBX 14 20 -1 -3
BITMAP
0180
03C0
0660
0000
00C0
01C0
01C0
03E0
02E0
0660
0C70
0C70
1FF0
1870
3038
7038
F87C
0000
0300
0300
ENDCHAR
STARTCHAR uni1EAD
ENCODING 7853
SWIDTH 500 0
DWIDTH 10 0
BBX 10 16 0 -3
BITMAP
0C00
1E00
3300
0000
1E80
7B80
7380
E380
E300
E700
E700
6F40
3B80
0000
0C00
0C00
ENDCHAR
STARTCHAR uni1EAE
ENCODING 7854
SWIDTH 667 0
DWIDTH 13 0
BBX 14 21 -1 0
BITMAP
0070
00E0
0180
0000
0220
0360
01C0
0000
00C0
01C0
01C0
03E0
02E0
0660
0C70
0C70
1FF0
1870
3038
7038
F87C
ENDCHAR
STARTCHAR uni1EAF
ENCODING 7855
SWIDTH 500 0
DWIDTH 10 0
BBX 10 17 0 0
BITMAP
0380
0700
0C00
0000
1100
1B00
0E00
0000
1E80
7B80
7380
E380
E300
E700
E700
6F40
3B80
ENDCHAR
STARTCHAR uni1EB0
ENCODING 7856
SWIDTH 667 0
DWIDTH 13 0
BBX 14 21 -1 0
BITMAP
0700
0380
00C0
0000
0220
0360
01C0
0000
00C0
01C0
01C0
03E0
02E0
0660
0C70
0C70
1FF0
1870
3038
7038
F87C
ENDCHAR
STARTCHAR uni1EB1
ENCODING 7857
SWIDTH 500 0
DWIDTH 10 0
BBX 10 17 0 0
BITMAP
3800
1C00
0600
0000
1100
1B00
0E00
0000
1E80
7B80
7380
E380
E300
E700
E700
6F40
3B80
ENDCHAR
STARTCHAR uni1EB4
ENCODING 7860
SWIDTH 667 0
DWIDTH 13 0
BBX 14 21 -1 0
BITMAP
0320
07E0
04C0
0000
0220
0360
01C0
0000
00C0
01C0
01C0
03E0
02E0
0660
0C70
0C70
1FF0
1870
3038
7038
F87C
ENDCHAR
STARTCHAR uni1EB5
ENCODING 7861
SWIDTH 500 0
DWIDTH 10 0
BBX 10 17 0 0
BITMAP
1900
3F00
2600
0000
1100
1B00
0E00
0000
1E80
7B80
7380
E380
E300
E700
E700
6F40
3B80
ENDCHAR
STARTCHAR uni1EB6
ENCODING 7862
SWIDTH 667 0
DWIDTH 13 0
BBX 14 20 -1 -3
BITMAP
0220
0360
01C0
0000
00C0
01C0
01C0
03E0
02E0
0660
0C70
0C70
1FF0
1870
3038
7038
F87C
0000
0300
0300
ENDCHAR
STARTCHAR uni1EB7
ENCODING 7863
SWIDTH 500 0
DWIDTH 10 0
BBX 10 16 0 -3
BITMAP
1100
1B00
0E00
0000
1E80
7B80
7380
E380
E300
E700
E700
6F40
3B80
0000
0C00
0C00
ENDCHAR
STARTCHAR uni1EB8
ENCODING 7864
SWIDTH 667 0
DWIDTH 12 0
BBX 12 16 0 -3
BITMAP
3FF0
1C70
1C20
1C20
3880
3980
3F80
3980
3100
7020
7060
70E0
FFC0
0000
0600
0600
ENDCHAR
STARTCHAR uni1EB9
ENCODING 7865
SWIDTH 444 0
DWIDTH 9 0
BBX 8 12 0 -3
BITMAP
1E
77
67
E7
EE
F8
E3
F6
7C
00
18
18
ENDCHAR
STARTCHAR uni1EBC
ENCODING 7868
SWIDTH 667 0
DWIDTH 12 0
BBX 12 17 0 0
BITMAP
0640
0FC0
0980
0000
3FF0
1C70
1C20
1C20
3880
3980
3F80
3980
3100
7020
7060
70E0
FFC0
ENDCHAR
STARTCHAR uni1EBD
ENCODING 7869
SWIDTH 444 0
DWIDTH 9 0
BBX 8 13 0 0
BITMAP
19
3F
26
00
1E
77
67
E7
EE
F8
E3
F6
7C
ENDCHAR
STARTCHAR uni1EBE
ENCODING 7870
SWIDTH 667 0
DWIDTH 12 0
BBX 12 21 0 0
BITMAP
00E0
01C0
0300
0000
0180
03C0
0660
0000
3FF0
1C70
1C20
1C20
3880
3980
3F80
3980
3100
7020
7060
70E0
FFC0
ENDCHAR
STARTCHAR uni1EBF
ENCODING 7871
SWIDTH 444 0
DWIDTH 9 0
BBX 8 17 0 0
BITMAP
07
0E
18
00
0C
1E
33
00
1E
77
67
E7
EE
F8
E3
F6
7C
ENDCHAR
STARTCHAR uni1EC0
ENCODING 7872
SWIDTH 667 0
DWIDTH 12 0
BBX 12 21 0 0
BITMAP
0E00
0700
0180
0000
0180
03C0
0660
0000
3FF0
1C70
1C20
1C20
3880
3980
3F80
3980
3100
7020
7060
70E0
FFC0
ENDCHAR
STARTCHAR uni1EC1
ENCODING 7873
SWIDTH 444 0
DWIDTH 9 0
BBX 8 17 0 0
BITMAP
70
38
0C
00
0C
1E
33
00
1E
77
67
E7
EE
F8
E3
F6
7C
ENDCHAR
STARTCHAR uni1EC4
ENCODING 7876
SWIDTH 667 0
DWIDTH 12 0
BBX 12 21 0 0
BITMAP
0640
0FC0
0980
0000
0180
03C0
0660
0000
3FF0
1C70
1C20
1C20
3880
3980
3F80
3980
3100
7020
7060
70E0
FFC0
ENDCHAR
STARTCHAR uni1EC5
ENCODING 7877
SWIDTH 444 0
DWIDTH 9 0
BBX 8 17 0 0
BITMAP
19
3F
26
00
0C
1E
33
00
1E
77
67
E7
EE
F8
E3
F6
7C
ENDCHAR
STARTCHAR uni1EC6
ENCODING 7878
SWIDTH 667 0
DWIDTH 12 0
BBX 12 20 0 -3
BITMAP
0600
0F00
1980
0000
3FF0
1C70
1C20
1C20
3880
3980
3F80
3980
3100
7020
7060
70E0
FFC0
0000
0600
0600
ENDCHAR
STARTCHAR uni1EC7
ENCODING 7879
SWIDTH 444 0
DWIDTH 9 0
BBX 8 16 0 -3
BITMAP
18
3C
66
00
1E
77
67
E7
EE
F8
E3
F6
7C
00
18
18
ENDCHAR
STARTCHAR uni1ECA
ENCODING 7882
SWIDTH 389 0
DWIDTH 7 0
BBX 7 16 0 -3
BITMAP
3E
1C
1C
1C
38
38
38
38
70
70
70
70
F8
00
30
30
ENDCHAR
STARTCHAR uni1ECB
ENCODING 7883
SWIDTH 278 0
DWIDTH 5 0
BBX 5 17 0 -3
BITMAP
30
30
30
00
00
F0
70
70
60
60
E0
E0
E8
70
00
60
60
ENDCHAR
STARTCHAR uni1ECC
ENCODING 7884
SWIDTH 722 0
DWIDTH 14 0
BBX 12 16 1 -3
BITMAP
07C0
1EE0
3870
7070
7070
E070
E070
E070
E0E0
E0E0
E1C0
7780
3E00
0000
0C00
0C00
ENDCHAR
STARTCHAR uni1ECD
ENCODING 7885
SWIDTH 500 0
DWIDTH 10 0
BBX 9 12 0 -3
BITMAP
1F00
7380
6380
E380
E380
E380
E300
E700
7C00
0000
1800
1800
ENDCHAR
STARTCHAR uni1ED0
ENCODING 7888
SWIDTH 722 0
DWIDTH 14 0
BBX 12 21 1 0
BITMAP
00E0
01C0
0300
0000
0180
03C0
0660
0000
07C0
1EE0
3870
7070
7070
E070
E070
E070
E0E0
E0E0
E1C0
7780
3E00
ENDCHAR
STARTCHAR uni1ED1
ENCODING 7889
SWIDTH 500 0
DWIDTH 10 0
BBX 9 17 0 0
BITMAP
0700
0E00
1800
0000
0C00
1E00
3300
0000
1F00
7380
6380
E380
E380
E380
E300
E700
7C00
ENDCHAR
STARTCHAR uni1ED2
ENCODING 7890
SWIDTH 722 0
DWIDTH 14 0
BBX 12 21 1 0
BITMAP
0E00
0700
0180
0000
0180
03C0
0660
0000
07C0
1EE0
3870
7070
7070
E070
E070
E070
E0E0
E0E0
E1C0
7780
3E00
ENDCHAR
STARTCHAR uni1ED3
ENCODING 7891
SWIDTH 500 0
DWIDTH 10 0
BBX 9 17 0 0
BITMAP
7000
3800
0C00
0000
0C00
1E00
3300
0000
1F00
7380
6380
E380
E380
E380
E300
E700
7C00
ENDCHAR
STARTCHAR uni1ED6
ENCODING 7894
SWIDTH 722 0
DWIDTH 14 0
BBX 12 21 1 0
BITMAP
0640
0FC0
0980
0000
0180
03C0
0660
0000
07C0
1EE0
3870
7070
7070
E070
E070
E070
E0E0
E0E0
E1C0
7780
3E00
ENDCHAR
STARTCHAR uni1ED7
ENCODING 7895
SWIDTH 500 0
DWIDTH 10 0
BBX 9 17 0 0
BITMAP
1900
3F00
2600
0000
0C00
1E00
3300
0000
1F00
7380
6380
E380
E380
E380
E300
E700
7C00
ENDCHAR
STARTCHAR uni1ED8
ENCODING 7896
SWIDTH 722 0
DWIDTH 14 0
BBX 12 20 1 -3
BITMAP
0300
0780
0CC0
0000
07C0
1EE0
3870
7070
7070
E070
E070
E070
E0E0
E0E0
E1C0
7780
3E00
0000
0C00
0C00
ENDCHAR
STARTCHAR uni1ED9
ENCODING 7897
SWIDTH 500 0
DWIDTH 10 0
BBX 9 16 0 -3
BITMAP
0C00
1E00
3300
0000
1F00
7380
6380
E380
E380
E380
E300
E700
7C00
0000
1800
1800
ENDCHAR
STARTCHAR uni1EDA
ENCODING 7898
SWIDTH 722 0
DWIDTH 14 0
BBX 14 17 1 0
BITMAP
0070
00E0
0180
0000
07DC
1EFC
387C
7078
7070
E070
E070
E070
E0E0
E0E0
E1C0
7780
3E00
ENDCHAR
STARTCHAR uni1EDB
ENCODING 7899
SWIDTH 500 0
DWIDTH 10 0
BBX 11 13 0 0
BITMAP
01C0
0380
0600
0000
1FE0
73E0
63E0
E3C0
E380
E380
E300
E700
7C00
ENDCHAR
STARTCHAR uni1EDC
ENCODING 7900
SWIDTH 722 0
DWIDTH 14 0
BBX 14 17 1 0
BITMAP
0700
0380
00C0
0000
07DC
1EFC
387C
7078
7070
E070
E070
E070
E0E0
E0E0
E1C0
7780
3E00
ENDCHAR
STARTCHAR uni1EDD
ENCODING 7901
SWIDTH 500 0
DWIDTH 10 0
BBX 11 13 0 0
BITMAP
1C00
0E00
0300
0000
1FE0
73E0
63E0
E3C0
E380
E380
E300
E700
7C00
ENDCHAR
STARTCHAR uni1EE0
ENCODING 7904
SWIDTH 722 0
DWIDTH 14 0
BBX 14 17 1 0
BITMAP
0320
07E0
04C0
0000
07DC
1EFC
387C
7078
7070
E070
E070
E070
E0E0
E0E0
E1C0
7780
3E00
ENDCHAR
STARTCHAR uni1EE1
ENCODING 7905
SWIDTH 500 0
DWIDTH 10 0
BBX 11 13 0 0
BITMAP
0C80
1F80
1300
0000
1FE0
73E0
63E0
E3C0
E380
E380
E300
E700
7C00
ENDCHAR
STARTCHAR uni1EE2
ENCODING 7906
SWIDTH 722 0
DWIDTH 14 0
BBX 14 16 1 -3
BITMAP
07DC
1EFC
387C
7078
7070
E070
E070
E070
E0E0
E0E0
E1C0
7780
3E00
0000
0600
0600
ENDCHAR
STARTCHAR uni1EE3
ENCODING 7907
SWIDTH 500 0
DWIDTH 10 0
BBX 11 12 0 -3
BITMAP
1FE0
73E0
63E0
E3C0
E380
E380
E300
E700
7C00
0000
1800
1800
ENDCHAR
STARTCHAR uni1EE4
ENCODING 7908
SWIDTH 722 0
DWIDTH 14 0
BBX 14 16 1 -3
BITMAP
7E7C
3838
3830
7830
7060
7060
7060
F060
E0C0
E0C0
E0C0
F180
7F00
0000
0C00
0C00
ENDCHAR
STARTCHAR uni1EE5
ENCODING 7909
SWIDTH 556 0
DWIDTH 10 0
BBX 10 12 0 -3
BITMAP
F380
7380
7380
6300
6700
E700
EF00
FB40
7380
0000
0C00
0C00
ENDCHAR
STARTCHAR uni1EE8
ENCODING 7912
SWIDTH 722 0
DWIDTH 14 0
BBX 16 17 1 0
BITMAP
0070
00E0
0180
0000
7E7F
383F
3833
7832
7064
7060
7060
F060
E0C0
E0C0
E0C0
F180
7F00
ENDCHAR
STARTCHAR uni1EE9
ENCODING 7913
SWIDTH 556 0
DWIDTH 10 0
BBX 12 13 0 0
BITMAP
01C0
0380
0600
0000
F3F0
73F0
73B0
6320
6740
E700
EF00
FB40
7380
ENDCHAR
STARTCHAR uni1EEA
ENCODING 7914
SWIDTH 722 0
DWIDTH 14 0
BBX 16 17 1 0
BITMAP
0700
0380
00C0
0000
7E7F
383F
3833
7832
7064
7060
7060
F060
E0C0
E0C0
E0C0
F180
7F00
ENDCHAR
STARTCHAR uni1EEB
ENCODING 7915
SWIDTH 556 0
DWIDTH 10 0
BBX 12 13 0 0
BITMAP
1C00
0E00
0300
0000
F3F0
73F0
73B0
6320
6740
E700
EF00
FB40
7380
ENDCHAR
STARTCHAR uni1EEE
ENCODING 7918
SWIDTH 722 0
DWIDTH 14 0
BBX 16 17 1 0
BITMAP
0190
03F0
0260
0000
7E7F
383F
3833
7832
7064
7060
7060
F060
E0C0
E0C0
E0C0
F180
7F00
ENDCHAR
STARTCHAR uni1EEF
ENCODING 7919
SWIDTH 556 0
DWIDTH 10 0
BBX 12 13 0 0
BITMAP
0C80
1F80
1300
0000
F3F0
73F0
73B0
6320
6740
E700
EF00
FB40
7380
ENDCHAR
STARTCHAR uni1EF0
ENCODING 7920
SWIDTH 722 0
DWIDTH 14 0
BBX 16 16 1 -3
BITMAP
7E7F
383F
3833
7832
7064
7060
7060
F060
E0C0
E0C0
E0C0
F180
7F00
0000
0600
0600
ENDCHAR
STARTCHAR uni1EF1
ENCODING 7921
SWIDTH 556 0
DWIDTH 10 0
BBX 12 12 0 -3
BITMAP
F3F0
73F0
73B0
6320
6740
E700
EF00
FB40
7380
0000
0C00
0C00
ENDCHAR
STARTCHAR Ygrave
ENCODING 7922
SWIDTH 611 0
DWIDTH 11 0
BBX 12 17 0 0
BITMAP
3800
1C00
0600
0000
F8F0
7060
70C0
3980
3B00
1E00
1C00
1C00
1C00
3800
3800
3800
FE00
ENDCHAR
STARTCHAR ygrave
ENCODING 7923
SWIDTH 444 0
DWIDTH 7 0
BBX 9 17 -2 -4
BITMAP
7000
3800
0C00
0000
7B80
3980
3980
3980
1900
1B00
1E00
0E00
0C00
0C00
C800
D800
7000
ENDCHAR
STARTCHAR uni1EF4
ENCODING 7924
SWIDTH 611 0
DWIDTH 11 0
BBX 12 16 0 -3
BITMAP
F8F0
7060
70C0
3980
3B00
1E00
1C00
1C00
1C00
3800
3800
3800
FE00
0000
1800
1800
ENDCHAR
STARTCHAR uni1EF5
ENCODING 7925
SWIDTH 444 0
DWIDTH 7 0
BBX 9 16 -2 -7
BITMAP
7B80
3980
3980
3980
1900
1B00
1E00
0E00
0C00
0C00
C800
D800
7000
0000
3000
3000
ENDCHAR
STARTCHAR uni1EF8
ENCODING 7928
SWIDTH 611 0
DWIDTH 11 0
BBX 12 17 0 0
BITMAP
0C80
1F80
1300
0000
F8F0
7060
70C0
3980
3B00
1E00
1C00
1C00
1C00
3800
3800
3800
FE00
ENDCHAR
STARTCHAR uni1EF9
ENCODING 7929
SWIDTH 444 0
DWIDTH 7 0
BBX 9 17 -2 -4
BITMAP
1900
3F00
2600
0000
7B80
3980
3980
3980
1900
1B00
1E00
0E00
0C00
0C00
C800
D800
7000
ENDCHAR
STARTCHAR uni2000
ENCODING 8192
SWIDTH 500 0
DWIDTH 10 0
BBX 1 1 0 0
BITMAP
00
ENDCHAR
STARTCHAR uni2001
ENCODING 8193
SWIDTH 1000 0
DWIDTH 19 0
BBX 1 1 0 0
BITMAP
00
ENDCHAR
STARTCHAR uni2002
ENCODING 8194
SWIDTH 500 0
DWIDTH 10 0
BBX 1 1 0 0
BITMAP
00
ENDCHAR
STARTCHAR uni2003
ENCODING 8195
SWIDTH 1000 0
DWIDTH 19 0
BBX 1 1 0 0
BITMAP
00
ENDCHAR
STARTCHAR uni2004
ENCODING 8196
SWIDTH 333 0
DWIDTH 6 0
BBX 1 1 0 0
BITMAP
00
ENDCHAR
STARTCHAR uni2005
ENCODING 8197
SWIDTH 250 0
DWIDTH 5 0
BBX 1 1 0 0
BITMAP
00
ENDCHAR
STARTCHAR uni2006
ENCODING 8198
SWIDTH 167 0
DWIDTH 3 0
BBX 1 1 0 0
BITMAP
00
ENDCHAR
STARTCHAR uni2007
ENCODING 8199
SWIDTH 500 0
DWIDTH 9 0
BBX 1 1 0 0
BITMAP
00
ENDCHAR
STARTCHAR uni2008
ENCODING 8200
SWIDTH 250 0
DWIDTH 4 0
BBX 1 1 0 0
BITMAP
00
ENDCHAR
STARTCHAR uni2009
ENCODING 8201
SWIDTH 200 0
DWIDTH 4 0
BBX 1 1 0 0
BITMAP
00
ENDCHAR
STARTCHAR uni200A
ENCODING 8202
SWIDTH 100 0
DWIDTH 2 0
BBX 1 1 0 0
BITMAP
00
ENDCHAR
STARTCHAR uni200B
ENCODING 8203
SWIDTH 0 0
DWIDTH 0 0
BBX 1 1 0 0
BITMAP
00
ENDCHAR
STARTCHAR uni2010
ENCODING 8208
SWIDTH 333 0
DWIDTH 6 0
BBX 5 2 0 4
BITMAP
F8
F8
ENDCHAR
STARTCHAR uni2011
ENCODING 8209
SWIDTH 333 0
DWIDTH 6 0
BBX 5 2 0 4
BITMAP
F8
F8
ENDCHAR
STARTCHAR figuredash
ENCODING 8210
SWIDTH 500 0
DWIDTH 9 0
BBX 9 2 0 4
BITMAP
FF80
FF80
ENDCHAR
STARTCHAR endash
ENCODING 8211
SWIDTH 500 0
DWIDTH 9 0
BBX 9 2 0 4
BITMAP
FF80
FF80
ENDCHAR
STARTCHAR emdash
ENCODING 8212
SWIDTH 1000 0
DWIDTH 19 0
BBX 19 2 0 4
BITMAP
FFFFE0
FFFFE0
ENDCHAR
STARTCHAR afii00208
ENCODING 8213
SWIDTH 1000 0
DWIDTH 19 0
BBX 19 2 0 4
BITMAP
FFFFE0
FFFFE0
ENDCHAR
STARTCHAR quoteleft
ENCODING 8216
SWIDTH 333 0
DWIDTH 5 0
BBX 3 5 1 8
BITMAP
20
40
C0
E0
E0
ENDCHAR
STARTCHAR quoteright
ENCODING 8217
SWIDTH 333 0
DWIDTH 5 0
BBX 3 5 2 8
BITMAP
E0
E0
60
40
80
ENDCHAR
STARTCHAR quotesinglbase
ENCODING 8218
SWIDTH 333 0
DWIDTH 6 0
BBX 3 5 1 -3
BITMAP
E0
E0
60
40
80
ENDCHAR
STARTCHAR quotereversed
ENCODING 8219
SWIDTH 333 0
DWIDTH 5 0
BBX 3 5 2 8
BITMAP
E0
E0
C0
40
20
ENDCHAR
STARTCHAR quotedblleft
ENCODING 8220
SWIDTH 500 0
DWIDTH 9 0
BBX 7 5 1 8
BITMAP
22
44
CC
EE
EE
ENDCHAR
STARTCHAR quotedblright
ENCODING 8221
SWIDTH 500 0
DWIDTH 9 0
BBX 7 5 2 8
BITMAP
EE
EE
66
44
88
ENDCHAR
STARTCHAR quotedblbase
ENCODING 8222
SWIDTH 500 0
DWIDTH 9 0
BBX 7 5 1 -3
BITMAP
EE
EE
66
44
88
ENDCHAR
STARTCHAR uni201F
ENCODING 8223
SWIDTH 500 0
DWIDTH 9 0
BBX 7 5 2 8
BITMAP
EE
EE
CC
44
22
ENDCHAR
STARTCHAR dagger
ENCODING 8224
SWIDTH 500 0
DWIDTH 9 0
BBX 8 16 0 -2
BITMAP
0C
0C
08
08
FF
CB
18
18
18
18
30
30
20
20
20
20
ENDCHAR
STARTCHAR daggerdbl
ENCODING 8225
SWIDTH 500 0
DWIDTH 10 0
BBX 9 16 0 -2
BITMAP
0600
0600
0400
0400
7F80
6580
0C00
0C00
0800
0800
FF00
D300
1000
1000
3000
3000
ENDCHAR
STARTCHAR bullet
ENCODING 8226
SWIDTH 350 0
DWIDTH 7 0
BBX 5 5 1 3
BITMAP
70
F8
F8
F8
70
ENDCHAR
STARTCHAR ellipsis
ENCODING 8230
SWIDTH 1000 0
DWIDTH 18 0
BBX 15 2 1 0
BITMAP
E38E
E38E
ENDCHAR
STARTCHAR perthousand
ENCODING 8240
SWIDTH 1000 0
DWIDTH 20 0
BBX 19 13 0 0
BITMAP
3CC000
778000
E58000
C90000
DB0000
720000
060000
04E1C0
0DD3A0
0B9720
1B2640
1366C0
31C380
ENDCHAR
STARTCHAR guilsinglleft
ENCODING 8249
SWIDTH 333 0
DWIDTH 6 0
BBX 5 8 0 0
BITMAP
08
18
30
60
C0
60
30
10
ENDCHAR
STARTCHAR guilsinglright
ENCODING 8250
SWIDTH 333 0
DWIDTH 7 0
BBX 5 8 1 0
BITMAP
40
60
30
18
30
60
C0
80
ENDCHAR
STARTCHAR fraction
ENCODING 8260
SWIDTH 167 0
DWIDTH 7 0
BBX 9 13 -1 0
BITMAP
0180
0300
0300
0600
0600
0C00
1800
1800
3000
3000
6000
6000
C000
ENDCHAR
STARTCHAR oneinferior
ENCODING 8321
SWIDTH 300 0
DWIDTH 5 0
BBX 4 8 0 -4
BITMAP
10
70
30
30
60
60
60
F0
ENDCHAR
STARTCHAR twoinferior
ENCODING 8322
SWIDTH 300 0
DWIDTH 5 0
BBX 6 8 -1 -4
BITMAP
38
4C
0C
18
10
20
64
F8
ENDCHAR
STARTCHAR threeinferior
ENCODING 8323
SWIDTH 300 0
DWIDTH 5 0
BBX 6 8 0 -4
BITMAP
38
4C
18
30
18
18
B0
E0
ENDCHAR
STARTCHAR uni20A5
ENCODING 8357
SWIDTH 778 0
DWIDTH 14 0
BBX 14 13 0 -2
BITMAP
00C0
00C0
F7F0
7BB8
73B8
7338
7338
F630
E670
E674
EE78
0C00
0C00
ENDCHAR
STARTCHAR uni20A6
ENCODING 8358
SWIDTH 722 0
DWIDTH 13 0
BBX 15 13 -1 0
BITMAP
3C1E
1C0C
1E0C
1E0C
1FF8
3FF8
3398
3FF8
3FF0
60F0
60F0
6060
F060
ENDCHAR
STARTCHAR uni20A9
ENCODING 8361
SWIDTH 889 0
DWIDTH 17 0
BBX 17 13 1 0
BITMAP
F3E780
71C300
71C600
71C400
77FC00
77F800
73D800
77F800
3FF800
38E000
38E000
30C000
30C000
ENDCHAR
STARTCHAR Euro
ENCODING 8364
SWIDTH 667 0
DWIDTH 13 0
BBX 14 13 -1 0
BITMAP
01F4
079C
0E0C
1C0C
FF00
FF00
3800
FF00
FF00
3C00
1C18
1F70
07C0
ENDCHAR
STARTCHAR uni20AD
ENCODING 8365
SWIDTH 667 0
DWIDTH 12 0
BBX 14 13 -1 0
BITMAP
3E7C
1C30
1C60
1CC0
3980
3F00
FFFC
3B80
3B80
71C0
71C0
70E0
F9F0
ENDCHAR
STARTCHAR uni2103
ENCODING 8451
SWIDTH 1047 0
DWIDTH 20 0
BBX 19 13 1 0
BITMAP
780FA0
CC3CE0
CC7060
CCE060
78E000
00C000
01C000
01C000
01C000
01E000
00E0C0
00FB80
003E00
ENDCHAR
STARTCHAR uni2109
ENCODING 8457
SWIDTH 1047 0
DWIDTH 19 0
BBX 18 13 1 0
BITMAP
78FFC0
CC71C0
CC7080
CC7080
786200
00E600
00FE00
00E600
00C400
01C000
01C000
01C000
03E000
ENDCHAR
STARTCHAR trademark
ENCODING 8482
SWIDTH 1000 0
DWIDTH 19 0
BBX 17 7 1 5
BITMAP
FEC180
926300
106300
105500
105D00
104900
38C980
ENDCHAR
STARTCHAR uni212A
ENCODING 8490
SWIDTH 667 0
DWIDTH 12 0
BBX 14 13 -1 0
BITMAP
3E7C
1C30
1C60
1CC0
3980
3F00
3F00
3B80
3B80
71C0
71C0
70E0
F9F0
ENDCHAR
STARTCHAR uni212B
ENCODING 8491
SWIDTH 667 0
DWIDTH 13 0
BBX 14 18 -1 0
BITMAP
00E0
01B0
01B0
00E0
0000
00C0
01C0
01C0
03E0
02E0
0660
0C70
0C70
1FF0
1870
3038
7038
F87C
ENDCHAR
STARTCHAR uni2132
ENCODING 8498
SWIDTH 667 0
DWIDTH 12 0
BBX 12 13 0 0
BITMAP
01F0
00E0
00E0
00E0
08C0
19C0
1FC0
19C0
1180
4380
4380
E380
FFC0
ENDCHAR
STARTCHAR minus
ENCODING 8722
SWIDTH 606 0
DWIDTH 11 0
BBX 8 2 1 4
BITMAP
FF
FF
ENDCHAR
STARTCHAR fraction
ENCODING 8725
SWIDTH 167 0
DWIDTH 7 0
BBX 9 13 -1 0
BITMAP
0180
0300
0300
0600
0600
0C00
1800
1800
3000
3000
6000
6000
C000
ENDCHAR
STARTCHAR periodcentered
ENCODING 8729
SWIDTH 250 0
DWIDTH 5 0
BBX 3 2 1 4
BITMAP
E0
E0
ENDCHAR
STARTCHAR uni2236
ENCODING 8758
SWIDTH 333 0
DWIDTH 6 0
BBX 4 8 1 0
BITMAP
30
30
00
00
00
00
C0
C0
ENDCHAR
STARTCHAR uni2259
ENCODING 8793
SWIDTH 570 0
DWIDTH 11 0
BBX 8 9 1 2
BITMAP
18
3C
66
00
FF
FF
00
FF
FF
ENDCHAR
STARTCHAR uni225A
ENCODING 8794
SWIDTH 570 0
DWIDTH 11 0
BBX 8 9 1 2
BITMAP
66
3C
18
00
FF
FF
00
FF
FF
ENDCHAR
STARTCHAR notequal
ENCODING 8800
SWIDTH 570 0
DWIDTH 11 0
BBX 8 13 1 -2
BITMAP
06
06
0C
0C
FF
FF
18
FF
FF
30
60
60
60
ENDCHAR
STARTCHAR equivalence
ENCODING 8801
SWIDTH 570 0
DWIDTH 11 0
BBX 8 5 0 2
BITMAP
FF
00
FF
00
FF
ENDCHAR
STARTCHAR uni2262
ENCODING 8802
SWIDTH 570 0
DWIDTH 11 0
BBX 8 13 0 -2
BITMAP
06
06
0C
0C
FF
18
FF
30
FF
30
60
60
60
ENDCHAR
STARTCHAR lessequal
ENCODING 8804
SWIDTH 570 0
DWIDTH 12 0
BBX 9 10 1 -2
BITMAP
0380
0E00
3800
E000
E000
3800
0E00
0380
0000
FF80
ENDCHAR
STARTCHAR greaterequal
ENCODING 8805
SWIDTH 570 0
DWIDTH 12 0
BBX 9 10 2 -2
BITMAP
E000
3800
0E00
0380
0380
0E00
3800
E000
0000
FF80
ENDCHAR
STARTCHAR uni226E
ENCODING 8814
SWIDTH 570 0
DWIDTH 12 0
BBX 9 13 1 -2
BITMAP
0300
0300
0600
0780
0E00
3C00
EC00
F800
3800
1E00
3380
3000
3000
ENDCHAR
STARTCHAR uni226F
ENCODING 8815
SWIDTH 570 0
DWIDTH 12 0
BBX 9 13 2 -2
BITMAP
0300
0300
0600
E600
3E00
0E00
0F80
1B80
1E00
3800
F000
3000
3000
ENDCHAR
STARTCHAR uni2270
ENCODING 8816
SWIDTH 570 0
DWIDTH 12 0
BBX 9 13 1 -3
BITMAP
0300
0300
0780
0E00
3E00
EC00
EC00
3800
1E00
1B80
3000
FF80
3000
ENDCHAR
STARTCHAR uni2271
ENCODING 8817
SWIDTH 570 0
DWIDTH 12 0
BBX 9 13 2 -3
BITMAP
0300
0300
E600
3E00
0E00
0F80
0F80
1E00
3800
F800
3000
FF80
3000
ENDCHAR
STARTCHAR fi
ENCODING -1
SWIDTH 556 0
DWIDTH 10 0
BBX 12 17 -2 -4
BITMAP
03F0
0730
0630
0E00
0E00
3FE0
0E60
0EE0
0CC0
1CC0
1DC0
1DE0
1CC0
1800
D800
D800
7000
ENDCHAR
STARTCHAR fl
ENCODING -1
SWIDTH 556 0
DWIDTH 10 0
BBX 12 17 -2 -4
BITMAP
03F0
0770
0670
0E60
0E60
3FE0
0EE0
0EE0
0CC0
1CC0
1DC0
1DD0
1CE0
1800
D800
D800
7000
ENDCHAR
ENDFONT
